<mxfile host="Electron" scale="1.2" border="0" agent="Mozilla/5.0 (Windows NT 10.0; Win64; x64) AppleWebKit/537.36 (KHTML, like Gecko) draw.io/24.7.8 Chrome/128.0.6613.36 Electron/32.0.1 Safari/537.36" version="24.7.8" pages="3">
  <diagram name="design" id="ahwWs56YI2XBYRBzwlqw">
    <mxGraphModel dx="1886" dy="870" grid="1" gridSize="10" guides="1" tooltips="1" connect="1" arrows="1" fold="1" page="0" pageScale="1" pageWidth="850" pageHeight="1100" math="0" shadow="0">
      <root>
        <mxCell id="0" />
        <mxCell id="1" parent="0" />
        <mxCell id="5WbJzgnFZzQuHIaXEJV7-1" value="&lt;span style=&quot;color: rgb(250, 250, 250); font-family: &amp;quot;Lucida Console&amp;quot;; font-size: 14px; font-weight: 700; text-wrap: nowrap;&quot;&gt;$STATEMACHINE : {fileName}&lt;/span&gt;" style="rounded=1;whiteSpace=wrap;html=1;fillColor=#1ba1e2;fontColor=#ffffff;strokeColor=#006EAF;connectable=0;allowArrows=0;" parent="1" vertex="1">
          <mxGeometry x="520" y="40" width="470" height="35" as="geometry" />
        </mxCell>
        <mxCell id="7" value="via exit enemy_win" style="shape=connector;rounded=0;html=1;exitX=0.13;exitY=1;exitDx=0;exitDy=0;exitPerimeter=0;entryX=0.13;entryY=0;entryDx=0;entryDy=0;entryPerimeter=0;labelBackgroundColor=default;strokeColor=default;fontFamily=Lucida Console;fontSize=12;fontColor=default;endArrow=classic;" parent="1" source="Q9ECF8ZZ4cc2KDeR4uCh-3" target="3" edge="1">
          <mxGeometry relative="1" as="geometry" />
        </mxCell>
        <mxCell id="Q9ECF8ZZ4cc2KDeR4uCh-3" value="HUNTING" style="shape=swimlane;rotatable=0;align=center;verticalAlign=top;fontFamily=Lucida Console;startSize=30;fontSize=14;fontStyle=1;fontColor=#ffffff;fillColor=#1ba1e2;swimlaneFillColor=default;rounded=1;arcSize=15;absoluteArcSize=1;points=[[0,0,0,0,0],[0,0.06,0,0,0],[0,0.13,0,0,0],[0,0.19,0,0,0],[0,0.25,0,0,0],[0,0.31,0,0,0],[0,0.38,0,0,0],[0,0.44,0,0,0],[0,0.5,0,0,0],[0,0.56,0,0,0],[0,0.63,0,0,0],[0,0.69,0,0,0],[0,0.75,0,0,0],[0,0.81,0,0,0],[0,0.88,0,0,0],[0,0.94,0,0,0],[0,1,0,0,0],[0.06,0,0,0,0],[0.06,1,0,0,0],[0.13,0,0,0,0],[0.13,1,0,0,0],[0.19,0,0,0,0],[0.19,1,0,0,0],[0.25,0,0,0,0],[0.25,1,0,0,0],[0.31,0,0,0,0],[0.31,1,0,0,0],[0.38,0,0,0,0],[0.38,1,0,0,0],[0.44,0,0,0,0],[0.44,1,0,0,0],[0.5,0,0,0,0],[0.5,1,0,0,0],[0.56,0,0,0,0],[0.56,1,0,0,0],[0.63,0,0,0,0],[0.63,1,0,0,0],[0.69,0,0,0,0],[0.69,1,0,0,0],[0.75,0,0,0,0],[0.75,1,0,0,0],[0.81,0,0,0,0],[0.81,1,0,0,0],[0.88,0,0,0,0],[0.88,1,0,0,0],[0.94,0,0,0,0],[0.94,1,0,0,0],[1,0,0,0,0],[1,0.06,0,0,0],[1,0.13,0,0,0],[1,0.19,0,0,0],[1,0.25,0,0,0],[1,0.31,0,0,0],[1,0.38,0,0,0],[1,0.44,0,0,0],[1,0.5,0,0,0],[1,0.56,0,0,0],[1,0.63,0,0,0],[1,0.69,0,0,0],[1,0.75,0,0,0],[1,0.81,0,0,0],[1,0.88,0,0,0],[1,0.94,0,0,0],[1,1,0,0,0]];strokeColor=#006EAF;labelBackgroundColor=none;" parent="1" vertex="1" collapsed="1">
          <mxGeometry x="640" y="190" width="480" height="280" as="geometry">
            <mxRectangle x="1000" y="160" width="880" height="530" as="alternateBounds" />
          </mxGeometry>
        </mxCell>
        <mxCell id="Q9ECF8ZZ4cc2KDeR4uCh-4" value="&lt;font color=&quot;#00cc00&quot;&gt;enter&lt;/font&gt; / {&lt;br&gt;&amp;nbsp; e.swellSpeed = 20;&lt;br&gt;&amp;nbsp; timer.set(20);&lt;br&gt;&lt;div&gt;}&lt;/div&gt;&lt;div&gt;&lt;font color=&quot;#007fff&quot;&gt;do&lt;/font&gt; / {&amp;nbsp;&amp;nbsp;&lt;/div&gt;&lt;div&gt;&amp;nbsp; e.debugCircle(6, &quot;#F008&quot;);&amp;nbsp;&lt;br&gt;&lt;/div&gt;&lt;div&gt;}&lt;/div&gt;&lt;div&gt;&lt;font color=&quot;#007fff&quot;&gt;do&lt;/font&gt;&amp;nbsp;[e.playerDist() &amp;lt; 6] / {&lt;/div&gt;&lt;div&gt;&amp;nbsp; timer.set(20);&lt;/div&gt;&lt;div&gt;}&lt;/div&gt;&lt;div&gt;&lt;div&gt;&lt;font color=&quot;#cc0000&quot;&gt;exit&lt;/font&gt;&amp;nbsp; / {&lt;br&gt;&amp;nbsp;&amp;nbsp;&lt;br&gt;}&lt;br&gt;&lt;/div&gt;&lt;/div&gt;" style="fontFamily=Lucida Console;align=left;verticalAlign=top;fillColor=none;gradientColor=none;strokeColor=none;rounded=0;spacingLeft=4;resizable=0;movable=0;deletable=0;rotatable=0;autosize=1;html=1;fontSize=12;fontColor=default;labelBackgroundColor=default;" parent="Q9ECF8ZZ4cc2KDeR4uCh-3" vertex="1" connectable="0">
          <mxGeometry y="30" width="240" height="200" as="geometry" />
        </mxCell>
        <mxCell id="Hnmf5235hFD20X_qkPbb-12" value="&lt;span style=&quot;font-family: &amp;quot;Lucida Console&amp;quot;; font-size: 12px;&quot;&gt;[e.playerDist() &amp;lt; 4 &amp;amp;&amp;amp;&lt;br&gt;rand() &amp;lt; 0.02]&lt;/span&gt;" style="html=1;exitX=1;exitY=0.19;exitDx=0;exitDy=0;exitPerimeter=0;entryX=0;entryY=0.44;entryDx=0;entryDy=0;entryPerimeter=0;" parent="Q9ECF8ZZ4cc2KDeR4uCh-3" source="1q6wfF8RRuyjrUOlEnNo-8" target="Hnmf5235hFD20X_qkPbb-10" edge="1">
          <mxGeometry x="0.0473" y="-10" relative="1" as="geometry">
            <mxPoint as="offset" />
          </mxGeometry>
        </mxCell>
        <mxCell id="jmfpwNvJTStH2VVPo99P-61" value="[rand() &lt; 0.001]" style="edgeStyle=none;html=0;exitX=0.19;exitY=1;exitDx=0;exitDy=0;exitPerimeter=0;entryX=0.19;entryY=0;entryDx=0;entryDy=0;entryPerimeter=0;fontFamily=Lucida Console;fontSize=12;" parent="Q9ECF8ZZ4cc2KDeR4uCh-3" source="1q6wfF8RRuyjrUOlEnNo-8" target="jmfpwNvJTStH2VVPo99P-59" edge="1">
          <mxGeometry relative="1" as="geometry">
            <mxPoint as="offset" />
          </mxGeometry>
        </mxCell>
        <mxCell id="1q6wfF8RRuyjrUOlEnNo-8" value="HUNT" style="shape=swimlane;rotatable=0;align=center;verticalAlign=top;fontFamily=Lucida Console;startSize=30;fontSize=14;fontStyle=1;fontColor=#ffffff;fillColor=#1ba1e2;swimlaneFillColor=default;rounded=1;arcSize=15;absoluteArcSize=1;points=[[0,0,0,0,0],[0,0.06,0,0,0],[0,0.13,0,0,0],[0,0.19,0,0,0],[0,0.25,0,0,0],[0,0.31,0,0,0],[0,0.38,0,0,0],[0,0.44,0,0,0],[0,0.5,0,0,0],[0,0.56,0,0,0],[0,0.63,0,0,0],[0,0.69,0,0,0],[0,0.75,0,0,0],[0,0.81,0,0,0],[0,0.88,0,0,0],[0,0.94,0,0,0],[0,1,0,0,0],[0.06,0,0,0,0],[0.06,1,0,0,0],[0.13,0,0,0,0],[0.13,1,0,0,0],[0.19,0,0,0,0],[0.19,1,0,0,0],[0.25,0,0,0,0],[0.25,1,0,0,0],[0.31,0,0,0,0],[0.31,1,0,0,0],[0.38,0,0,0,0],[0.38,1,0,0,0],[0.44,0,0,0,0],[0.44,1,0,0,0],[0.5,0,0,0,0],[0.5,1,0,0,0],[0.56,0,0,0,0],[0.56,1,0,0,0],[0.63,0,0,0,0],[0.63,1,0,0,0],[0.69,0,0,0,0],[0.69,1,0,0,0],[0.75,0,0,0,0],[0.75,1,0,0,0],[0.81,0,0,0,0],[0.81,1,0,0,0],[0.88,0,0,0,0],[0.88,1,0,0,0],[0.94,0,0,0,0],[0.94,1,0,0,0],[1,0,0,0,0],[1,0.06,0,0,0],[1,0.13,0,0,0],[1,0.19,0,0,0],[1,0.25,0,0,0],[1,0.31,0,0,0],[1,0.38,0,0,0],[1,0.44,0,0,0],[1,0.5,0,0,0],[1,0.56,0,0,0],[1,0.63,0,0,0],[1,0.69,0,0,0],[1,0.75,0,0,0],[1,0.81,0,0,0],[1,0.88,0,0,0],[1,0.94,0,0,0],[1,1,0,0,0]];strokeColor=#006EAF;labelBackgroundColor=none;" parent="Q9ECF8ZZ4cc2KDeR4uCh-3" vertex="1">
          <mxGeometry x="130" y="280" width="240" height="200" as="geometry" />
        </mxCell>
        <mxCell id="1q6wfF8RRuyjrUOlEnNo-9" value="&lt;font color=&quot;#00cc00&quot;&gt;enter&lt;/font&gt; / {&lt;br&gt;&amp;nbsp; e.tile(&quot;mad&quot;);&lt;br&gt;}&lt;br&gt;&lt;div&gt;&lt;font color=&quot;#007fff&quot;&gt;do&lt;/font&gt; / {&lt;/div&gt;&lt;div&gt;&lt;div&gt;&amp;nbsp; e.huntPlayer();&lt;/div&gt;&lt;div&gt;&amp;nbsp; e.debugCircle(4, &quot;#FF08&quot;);&amp;nbsp;&lt;br&gt;&lt;/div&gt;&lt;/div&gt;&lt;div&gt;}&lt;/div&gt;&lt;div&gt;&lt;br&gt;&lt;/div&gt;&lt;div&gt;&lt;div&gt;&lt;font color=&quot;#cc0000&quot;&gt;exit&lt;/font&gt;&amp;nbsp; / {&lt;br&gt;&amp;nbsp;&amp;nbsp;&lt;br&gt;}&lt;br&gt;&lt;/div&gt;&lt;/div&gt;" style="fontFamily=Lucida Console;align=left;verticalAlign=top;fillColor=none;gradientColor=none;strokeColor=none;rounded=0;spacingLeft=4;resizable=0;movable=0;deletable=0;rotatable=0;autosize=1;html=1;fontSize=12;fontColor=default;labelBackgroundColor=default;" parent="1q6wfF8RRuyjrUOlEnNo-8" vertex="1" connectable="0">
          <mxGeometry y="30" width="240" height="170" as="geometry" />
        </mxCell>
        <mxCell id="Hnmf5235hFD20X_qkPbb-9" style="edgeStyle=none;html=1;exitX=1;exitY=0.5;exitDx=0;exitDy=0;entryX=0;entryY=0.56;entryDx=0;entryDy=0;entryPerimeter=0;" parent="Q9ECF8ZZ4cc2KDeR4uCh-3" source="Hnmf5235hFD20X_qkPbb-8" target="1q6wfF8RRuyjrUOlEnNo-8" edge="1">
          <mxGeometry relative="1" as="geometry" />
        </mxCell>
        <mxCell id="Hnmf5235hFD20X_qkPbb-8" value="$initial_state" style="shape=ellipse;aspect=fixed;fillColor=#000000;resizable=1;rotatable=1;noLabel=1;editable=1;movable=1;deletable=1;locked=0;connectable=1;" parent="Q9ECF8ZZ4cc2KDeR4uCh-3" vertex="1">
          <mxGeometry x="70" y="380" width="25" height="25" as="geometry" />
        </mxCell>
        <mxCell id="Hnmf5235hFD20X_qkPbb-21" value="[e.chargeTimer.elapsed()]" style="edgeStyle=none;shape=connector;rounded=1;html=1;exitX=0;exitY=0.44;exitDx=0;exitDy=0;exitPerimeter=0;entryX=1;entryY=0.75;entryDx=0;entryDy=0;entryPerimeter=0;labelBackgroundColor=default;strokeColor=default;fontFamily=Lucida Console;fontSize=12;fontColor=default;endArrow=classic;" parent="Q9ECF8ZZ4cc2KDeR4uCh-3" source="Hnmf5235hFD20X_qkPbb-13" target="1q6wfF8RRuyjrUOlEnNo-8" edge="1">
          <mxGeometry relative="1" as="geometry" />
        </mxCell>
        <mxCell id="jmfpwNvJTStH2VVPo99P-62" value="[e.alarm.isDone()]" style="edgeStyle=none;html=0;exitX=0.88;exitY=0;exitDx=0;exitDy=0;exitPerimeter=0;entryX=0.81;entryY=1;entryDx=0;entryDy=0;entryPerimeter=0;fontFamily=Lucida Console;fontSize=12;" parent="Q9ECF8ZZ4cc2KDeR4uCh-3" source="jmfpwNvJTStH2VVPo99P-59" target="1q6wfF8RRuyjrUOlEnNo-8" edge="1">
          <mxGeometry relative="1" as="geometry" />
        </mxCell>
        <mxCell id="jmfpwNvJTStH2VVPo99P-59" value="SOUND_ALARM" style="shape=swimlane;rotatable=0;align=center;verticalAlign=top;fontFamily=Lucida Console;startSize=30;fontSize=14;fontStyle=1;fontColor=#ffffff;fillColor=#1ba1e2;swimlaneFillColor=default;rounded=1;arcSize=15;absoluteArcSize=1;points=[[0,0,0,0,0],[0,0.06,0,0,0],[0,0.13,0,0,0],[0,0.19,0,0,0],[0,0.25,0,0,0],[0,0.31,0,0,0],[0,0.38,0,0,0],[0,0.44,0,0,0],[0,0.5,0,0,0],[0,0.56,0,0,0],[0,0.63,0,0,0],[0,0.69,0,0,0],[0,0.75,0,0,0],[0,0.81,0,0,0],[0,0.88,0,0,0],[0,0.94,0,0,0],[0,1,0,0,0],[0.06,0,0,0,0],[0.06,1,0,0,0],[0.13,0,0,0,0],[0.13,1,0,0,0],[0.19,0,0,0,0],[0.19,1,0,0,0],[0.25,0,0,0,0],[0.25,1,0,0,0],[0.31,0,0,0,0],[0.31,1,0,0,0],[0.38,0,0,0,0],[0.38,1,0,0,0],[0.44,0,0,0,0],[0.44,1,0,0,0],[0.5,0,0,0,0],[0.5,1,0,0,0],[0.56,0,0,0,0],[0.56,1,0,0,0],[0.63,0,0,0,0],[0.63,1,0,0,0],[0.69,0,0,0,0],[0.69,1,0,0,0],[0.75,0,0,0,0],[0.75,1,0,0,0],[0.81,0,0,0,0],[0.81,1,0,0,0],[0.88,0,0,0,0],[0.88,1,0,0,0],[0.94,0,0,0,0],[0.94,1,0,0,0],[1,0,0,0,0],[1,0.06,0,0,0],[1,0.13,0,0,0],[1,0.19,0,0,0],[1,0.25,0,0,0],[1,0.31,0,0,0],[1,0.38,0,0,0],[1,0.44,0,0,0],[1,0.5,0,0,0],[1,0.56,0,0,0],[1,0.63,0,0,0],[1,0.69,0,0,0],[1,0.75,0,0,0],[1,0.81,0,0,0],[1,0.88,0,0,0],[1,0.94,0,0,0],[1,1,0,0,0]];strokeColor=#006EAF;labelBackgroundColor=none;" parent="Q9ECF8ZZ4cc2KDeR4uCh-3" vertex="1">
          <mxGeometry x="130" y="580" width="240" height="120" as="geometry">
            <mxRectangle x="640" y="180" width="150" height="70" as="alternateBounds" />
          </mxGeometry>
        </mxCell>
        <mxCell id="jmfpwNvJTStH2VVPo99P-60" value="&lt;font color=&quot;#00cc00&quot;&gt;enter&lt;/font&gt;&amp;nbsp;/&amp;nbsp;e.alarm.setForHunt();&lt;br&gt;&lt;font color=&quot;#00cc00&quot;&gt;enter&lt;/font&gt;&amp;nbsp;/&amp;nbsp;e.alarm.enter();&lt;br&gt;&lt;div&gt;&lt;font color=&quot;#007fff&quot;&gt;do&lt;/font&gt;&amp;nbsp;/ e.alarm.do();&lt;/div&gt;&lt;div&gt;&lt;font color=&quot;#cc0000&quot;&gt;exit&lt;/font&gt;&amp;nbsp;/ e.alarm.exit();&lt;/div&gt;&lt;div&gt;&lt;br&gt;&lt;/div&gt;" style="fontFamily=Lucida Console;align=left;verticalAlign=top;fillColor=none;gradientColor=none;strokeColor=none;rounded=0;spacingLeft=4;resizable=0;movable=0;deletable=0;rotatable=0;autosize=1;html=1;fontSize=12;fontColor=default;labelBackgroundColor=default;" parent="jmfpwNvJTStH2VVPo99P-59" vertex="1" connectable="0">
          <mxGeometry y="30" width="240" height="90" as="geometry" />
        </mxCell>
        <mxCell id="sRjPaNQ95sppFc7ALcqi-34" value="&lt;span style=&quot;color: rgb(240, 240, 240); font-family: &amp;quot;Lucida Console&amp;quot;; font-size: 12px; font-style: normal; font-variant-ligatures: normal; font-variant-caps: normal; font-weight: 400; letter-spacing: normal; orphans: 2; text-align: center; text-indent: 0px; text-transform: none; widows: 2; word-spacing: 0px; -webkit-text-stroke-width: 0px; text-decoration-thickness: initial; text-decoration-style: initial; text-decoration-color: initial; float: none; display: inline !important;&quot;&gt;[timer.elapsed()]&lt;/span&gt;" style="edgeStyle=none;html=1;fontFamily=Lucida Console;labelBackgroundColor=default;exitX=1;exitY=0.099;exitDx=0;exitDy=0;exitPerimeter=0;" parent="Q9ECF8ZZ4cc2KDeR4uCh-3" source="sRjPaNQ95sppFc7ALcqi-33" target="sRjPaNQ95sppFc7ALcqi-32" edge="1">
          <mxGeometry x="-0.0204" y="-14" relative="1" as="geometry">
            <mxPoint as="offset" />
          </mxGeometry>
        </mxCell>
        <mxCell id="sRjPaNQ95sppFc7ALcqi-38" value="&lt;span style=&quot;color: rgb(240, 240, 240); font-family: &amp;quot;Lucida Console&amp;quot;; font-size: 12px; font-style: normal; font-variant-ligatures: normal; font-variant-caps: normal; font-weight: 400; letter-spacing: normal; orphans: 2; text-align: center; text-indent: 0px; text-transform: none; widows: 2; word-spacing: 0px; -webkit-text-stroke-width: 0px; background-color: rgb(24, 20, 29); text-decoration-thickness: initial; text-decoration-style: initial; text-decoration-color: initial; float: none; display: inline !important;&quot;&gt;[player.isDead()]&lt;/span&gt;" style="edgeStyle=none;html=1;exitX=1;exitY=0.5;exitDx=0;exitDy=0;labelBackgroundColor=default;fontFamily=Lucida Console;" parent="Q9ECF8ZZ4cc2KDeR4uCh-3" source="sRjPaNQ95sppFc7ALcqi-33" target="sRjPaNQ95sppFc7ALcqi-36" edge="1">
          <mxGeometry x="-0.0256" y="-15" relative="1" as="geometry">
            <mxPoint as="offset" />
          </mxGeometry>
        </mxCell>
        <mxCell id="sRjPaNQ95sppFc7ALcqi-33" value="$PARENT_ALIAS" style="rounded=1;whiteSpace=wrap;html=1;verticalAlign=middle;align=center;spacingLeft=2;arcSize=9;fontFamily=Lucida Console;fillColor=#d80073;fontColor=#ffffff;strokeColor=#A50040;" parent="Q9ECF8ZZ4cc2KDeR4uCh-3" vertex="1">
          <mxGeometry x="280" y="50" width="145" height="170" as="geometry" />
        </mxCell>
        <mxCell id="Hnmf5235hFD20X_qkPbb-20" value="[e.isChargeDone()]" style="edgeStyle=none;shape=connector;rounded=1;html=1;exitX=0.5;exitY=1;exitDx=0;exitDy=0;exitPerimeter=0;labelBackgroundColor=default;strokeColor=default;fontFamily=Lucida Console;fontSize=12;fontColor=default;endArrow=classic;" parent="Q9ECF8ZZ4cc2KDeR4uCh-3" source="Hnmf5235hFD20X_qkPbb-10" target="Hnmf5235hFD20X_qkPbb-13" edge="1">
          <mxGeometry relative="1" as="geometry">
            <mxPoint as="offset" />
          </mxGeometry>
        </mxCell>
        <mxCell id="Hnmf5235hFD20X_qkPbb-10" value="CHARGE" style="shape=swimlane;rotatable=0;align=center;verticalAlign=top;fontFamily=Lucida Console;startSize=30;fontSize=14;fontStyle=1;fontColor=#ffffff;fillColor=#1ba1e2;swimlaneFillColor=default;rounded=1;arcSize=15;absoluteArcSize=1;points=[[0,0,0,0,0],[0,0.06,0,0,0],[0,0.13,0,0,0],[0,0.19,0,0,0],[0,0.25,0,0,0],[0,0.31,0,0,0],[0,0.38,0,0,0],[0,0.44,0,0,0],[0,0.5,0,0,0],[0,0.56,0,0,0],[0,0.63,0,0,0],[0,0.69,0,0,0],[0,0.75,0,0,0],[0,0.81,0,0,0],[0,0.88,0,0,0],[0,0.94,0,0,0],[0,1,0,0,0],[0.06,0,0,0,0],[0.06,1,0,0,0],[0.13,0,0,0,0],[0.13,1,0,0,0],[0.19,0,0,0,0],[0.19,1,0,0,0],[0.25,0,0,0,0],[0.25,1,0,0,0],[0.31,0,0,0,0],[0.31,1,0,0,0],[0.38,0,0,0,0],[0.38,1,0,0,0],[0.44,0,0,0,0],[0.44,1,0,0,0],[0.5,0,0,0,0],[0.5,1,0,0,0],[0.56,0,0,0,0],[0.56,1,0,0,0],[0.63,0,0,0,0],[0.63,1,0,0,0],[0.69,0,0,0,0],[0.69,1,0,0,0],[0.75,0,0,0,0],[0.75,1,0,0,0],[0.81,0,0,0,0],[0.81,1,0,0,0],[0.88,0,0,0,0],[0.88,1,0,0,0],[0.94,0,0,0,0],[0.94,1,0,0,0],[1,0,0,0,0],[1,0.06,0,0,0],[1,0.13,0,0,0],[1,0.19,0,0,0],[1,0.25,0,0,0],[1,0.31,0,0,0],[1,0.38,0,0,0],[1,0.44,0,0,0],[1,0.5,0,0,0],[1,0.56,0,0,0],[1,0.63,0,0,0],[1,0.69,0,0,0],[1,0.75,0,0,0],[1,0.81,0,0,0],[1,0.88,0,0,0],[1,0.94,0,0,0],[1,1,0,0,0]];strokeColor=#006EAF;labelBackgroundColor=none;" parent="Q9ECF8ZZ4cc2KDeR4uCh-3" vertex="1">
          <mxGeometry x="620" y="230" width="240" height="180" as="geometry">
            <mxRectangle x="640" y="180" width="150" height="70" as="alternateBounds" />
          </mxGeometry>
        </mxCell>
        <mxCell id="Hnmf5235hFD20X_qkPbb-11" value="&lt;font color=&quot;#00cc00&quot;&gt;enter&lt;/font&gt; / {&lt;br&gt;&amp;nbsp; e.chargeEnter();&lt;br&gt;}&lt;br&gt;&lt;div&gt;&lt;font color=&quot;#007fff&quot;&gt;do&lt;/font&gt; / {&lt;br&gt;&amp;nbsp; e.chargeDo();&lt;br&gt;&lt;/div&gt;&lt;div&gt;}&lt;/div&gt;&lt;div&gt;&lt;font color=&quot;#cc0000&quot;&gt;exit&lt;/font&gt;&amp;nbsp;/ {&lt;br&gt;&lt;/div&gt;&lt;div&gt;&lt;div&gt;&amp;nbsp; e.chargeExit();&lt;br&gt;}&lt;br&gt;&lt;/div&gt;&lt;/div&gt;" style="fontFamily=Lucida Console;align=left;verticalAlign=top;fillColor=none;gradientColor=none;strokeColor=none;rounded=0;spacingLeft=4;resizable=0;movable=0;deletable=0;rotatable=0;autosize=1;html=1;fontSize=12;fontColor=default;labelBackgroundColor=default;" parent="Hnmf5235hFD20X_qkPbb-10" vertex="1" connectable="0">
          <mxGeometry y="30" width="160" height="140" as="geometry" />
        </mxCell>
        <mxCell id="Hnmf5235hFD20X_qkPbb-13" value="CHARGE_REST" style="shape=swimlane;rotatable=0;align=center;verticalAlign=top;fontFamily=Lucida Console;startSize=30;fontSize=14;fontStyle=1;fontColor=#ffffff;fillColor=#1ba1e2;swimlaneFillColor=default;rounded=1;arcSize=15;absoluteArcSize=1;points=[[0,0,0,0,0],[0,0.06,0,0,0],[0,0.13,0,0,0],[0,0.19,0,0,0],[0,0.25,0,0,0],[0,0.31,0,0,0],[0,0.38,0,0,0],[0,0.44,0,0,0],[0,0.5,0,0,0],[0,0.56,0,0,0],[0,0.63,0,0,0],[0,0.69,0,0,0],[0,0.75,0,0,0],[0,0.81,0,0,0],[0,0.88,0,0,0],[0,0.94,0,0,0],[0,1,0,0,0],[0.06,0,0,0,0],[0.06,1,0,0,0],[0.13,0,0,0,0],[0.13,1,0,0,0],[0.19,0,0,0,0],[0.19,1,0,0,0],[0.25,0,0,0,0],[0.25,1,0,0,0],[0.31,0,0,0,0],[0.31,1,0,0,0],[0.38,0,0,0,0],[0.38,1,0,0,0],[0.44,0,0,0,0],[0.44,1,0,0,0],[0.5,0,0,0,0],[0.5,1,0,0,0],[0.56,0,0,0,0],[0.56,1,0,0,0],[0.63,0,0,0,0],[0.63,1,0,0,0],[0.69,0,0,0,0],[0.69,1,0,0,0],[0.75,0,0,0,0],[0.75,1,0,0,0],[0.81,0,0,0,0],[0.81,1,0,0,0],[0.88,0,0,0,0],[0.88,1,0,0,0],[0.94,0,0,0,0],[0.94,1,0,0,0],[1,0,0,0,0],[1,0.06,0,0,0],[1,0.13,0,0,0],[1,0.19,0,0,0],[1,0.25,0,0,0],[1,0.31,0,0,0],[1,0.38,0,0,0],[1,0.44,0,0,0],[1,0.5,0,0,0],[1,0.56,0,0,0],[1,0.63,0,0,0],[1,0.69,0,0,0],[1,0.75,0,0,0],[1,0.81,0,0,0],[1,0.88,0,0,0],[1,0.94,0,0,0],[1,1,0,0,0]];strokeColor=#006EAF;labelBackgroundColor=none;" parent="Q9ECF8ZZ4cc2KDeR4uCh-3" vertex="1">
          <mxGeometry x="620" y="470" width="240" height="190" as="geometry">
            <mxRectangle x="640" y="340" width="150" height="70" as="alternateBounds" />
          </mxGeometry>
        </mxCell>
        <mxCell id="Hnmf5235hFD20X_qkPbb-14" value="&lt;font color=&quot;#00cc00&quot;&gt;enter&lt;/font&gt; / {&lt;br&gt;&amp;nbsp; e.chargeTimer.set(1.5);&lt;br&gt;&amp;nbsp; e.tile(&quot;groggy&quot;);&lt;br&gt;}&lt;br&gt;&lt;div&gt;&lt;font color=&quot;#007fff&quot;&gt;do&lt;/font&gt; / {&lt;br&gt;&lt;br&gt;&lt;/div&gt;&lt;div&gt;}&lt;/div&gt;&lt;div&gt;&lt;font color=&quot;#cc0000&quot;&gt;exit&lt;/font&gt;&amp;nbsp;/ {&lt;br&gt;&lt;/div&gt;&lt;div&gt;&lt;div&gt;&lt;br&gt;}&lt;br&gt;&lt;/div&gt;&lt;/div&gt;" style="fontFamily=Lucida Console;align=left;verticalAlign=top;fillColor=none;gradientColor=none;strokeColor=none;rounded=0;spacingLeft=4;resizable=0;movable=0;deletable=0;rotatable=0;autosize=1;html=1;fontSize=12;fontColor=default;labelBackgroundColor=default;" parent="Hnmf5235hFD20X_qkPbb-13" vertex="1" connectable="0">
          <mxGeometry y="30" width="210" height="160" as="geometry" />
        </mxCell>
        <mxCell id="sRjPaNQ95sppFc7ALcqi-32" value="exit : idle" style="fontFamily=Lucida Console;align=center;verticalAlign=top;shape=ellipse;aspect=fixed;resizable=0;rotatable=0;labelPosition=center;verticalLabelPosition=bottom;strokeColor=#b11f1f;strokeWidth=4;fillColor=#FFFFFF;gradientColor=#d4d4d4cc;" parent="Q9ECF8ZZ4cc2KDeR4uCh-3" vertex="1">
          <mxGeometry x="680" y="50" width="30" height="30" as="geometry" />
        </mxCell>
        <mxCell id="sRjPaNQ95sppFc7ALcqi-36" value="exit : enemy_win" style="fontFamily=Lucida Console;align=center;verticalAlign=top;shape=ellipse;aspect=fixed;resizable=0;rotatable=0;labelPosition=center;verticalLabelPosition=bottom;strokeColor=#b11f1f;strokeWidth=4;fillColor=#FFFFFF;gradientColor=#d4d4d4cc;" parent="Q9ECF8ZZ4cc2KDeR4uCh-3" vertex="1">
          <mxGeometry x="680" y="120" width="30" height="30" as="geometry" />
        </mxCell>
        <mxCell id="8" value="[timer.elapsed()]" style="shape=connector;rounded=0;html=1;exitX=0.88;exitY=0;exitDx=0;exitDy=0;exitPerimeter=0;entryX=0.88;entryY=1;entryDx=0;entryDy=0;entryPerimeter=0;labelBackgroundColor=default;strokeColor=default;fontFamily=Lucida Console;fontSize=12;fontColor=default;endArrow=classic;" parent="1" source="3" target="Q9ECF8ZZ4cc2KDeR4uCh-3" edge="1">
          <mxGeometry relative="1" as="geometry" />
        </mxCell>
        <mxCell id="3" value="ENEMY_WIN" style="shape=swimlane;rotatable=0;align=center;verticalAlign=top;fontFamily=Lucida Console;startSize=30;fontSize=14;fontStyle=1;fontColor=#ffffff;fillColor=#1ba1e2;swimlaneFillColor=default;rounded=1;arcSize=15;absoluteArcSize=1;points=[[0,0,0,0,0],[0,0.06,0,0,0],[0,0.13,0,0,0],[0,0.19,0,0,0],[0,0.25,0,0,0],[0,0.31,0,0,0],[0,0.38,0,0,0],[0,0.44,0,0,0],[0,0.5,0,0,0],[0,0.56,0,0,0],[0,0.63,0,0,0],[0,0.69,0,0,0],[0,0.75,0,0,0],[0,0.81,0,0,0],[0,0.88,0,0,0],[0,0.94,0,0,0],[0,1,0,0,0],[0.06,0,0,0,0],[0.06,1,0,0,0],[0.13,0,0,0,0],[0.13,1,0,0,0],[0.19,0,0,0,0],[0.19,1,0,0,0],[0.25,0,0,0,0],[0.25,1,0,0,0],[0.31,0,0,0,0],[0.31,1,0,0,0],[0.38,0,0,0,0],[0.38,1,0,0,0],[0.44,0,0,0,0],[0.44,1,0,0,0],[0.5,0,0,0,0],[0.5,1,0,0,0],[0.56,0,0,0,0],[0.56,1,0,0,0],[0.63,0,0,0,0],[0.63,1,0,0,0],[0.69,0,0,0,0],[0.69,1,0,0,0],[0.75,0,0,0,0],[0.75,1,0,0,0],[0.81,0,0,0,0],[0.81,1,0,0,0],[0.88,0,0,0,0],[0.88,1,0,0,0],[0.94,0,0,0,0],[0.94,1,0,0,0],[1,0,0,0,0],[1,0.06,0,0,0],[1,0.13,0,0,0],[1,0.19,0,0,0],[1,0.25,0,0,0],[1,0.31,0,0,0],[1,0.38,0,0,0],[1,0.44,0,0,0],[1,0.5,0,0,0],[1,0.56,0,0,0],[1,0.63,0,0,0],[1,0.69,0,0,0],[1,0.75,0,0,0],[1,0.81,0,0,0],[1,0.88,0,0,0],[1,0.94,0,0,0],[1,1,0,0,0]];strokeColor=#006EAF;labelBackgroundColor=none;" parent="1" vertex="1">
          <mxGeometry x="640" y="590" width="480" height="200" as="geometry" />
        </mxCell>
        <mxCell id="4" value="&lt;font color=&quot;#00cc00&quot;&gt;enter&lt;/font&gt; / {&lt;br&gt;&amp;nbsp; e.tile(&quot;chomp&quot;);&lt;br&gt;&amp;nbsp; e.swellSpeed = 60;&lt;br&gt;&amp;nbsp; e.play(&quot;laugh&quot;);&lt;br&gt;&amp;nbsp; timer.set(3);&lt;br&gt;&amp;nbsp; e.dance.enter();&lt;br&gt;&lt;div&gt;}&lt;/div&gt;&lt;div&gt;&lt;font color=&quot;#007fff&quot;&gt;do&lt;/font&gt; / e.dance.do();&lt;br&gt;&lt;div&gt;&lt;font color=&quot;#cc0000&quot;&gt;exit&lt;/font&gt;&amp;nbsp;/ e.dance.exit();&lt;br&gt;&lt;/div&gt;&lt;/div&gt;" style="fontFamily=Lucida Console;align=left;verticalAlign=top;fillColor=none;gradientColor=none;strokeColor=none;rounded=0;spacingLeft=4;resizable=0;movable=0;deletable=0;rotatable=0;autosize=1;html=1;fontSize=12;fontColor=default;labelBackgroundColor=default;" parent="3" vertex="1" connectable="0">
          <mxGeometry y="30" width="180" height="140" as="geometry" />
        </mxCell>
        <mxCell id="hdPofdkxEfvwtyw9cPgT-23" value="via exit hunt" style="edgeStyle=none;html=1;exitX=1;exitY=0.81;exitDx=0;exitDy=0;exitPerimeter=0;entryX=0;entryY=0.81;entryDx=0;entryDy=0;entryPerimeter=0;fontSize=12;fontFamily=Lucida Console;" parent="1" source="19" target="Q9ECF8ZZ4cc2KDeR4uCh-3" edge="1">
          <mxGeometry relative="1" as="geometry" />
        </mxCell>
        <mxCell id="jmfpwNvJTStH2VVPo99P-56" value="via exit sound_alarm" style="edgeStyle=none;html=0;exitX=0.44;exitY=1;exitDx=0;exitDy=0;exitPerimeter=0;entryX=0.5;entryY=0;entryDx=0;entryDy=0;entryPerimeter=0;fontFamily=Lucida Console;fontSize=12;" parent="1" source="19" target="jmfpwNvJTStH2VVPo99P-51" edge="1">
          <mxGeometry relative="1" as="geometry" />
        </mxCell>
        <mxCell id="19" value="IDLE" style="shape=swimlane;rotatable=0;align=center;verticalAlign=top;fontFamily=Lucida Console;startSize=30;fontSize=14;fontStyle=1;fontColor=#ffffff;fillColor=#1ba1e2;swimlaneFillColor=default;rounded=1;arcSize=15;absoluteArcSize=1;points=[[0,0,0,0,0],[0,0.06,0,0,0],[0,0.13,0,0,0],[0,0.19,0,0,0],[0,0.25,0,0,0],[0,0.31,0,0,0],[0,0.38,0,0,0],[0,0.44,0,0,0],[0,0.5,0,0,0],[0,0.56,0,0,0],[0,0.63,0,0,0],[0,0.69,0,0,0],[0,0.75,0,0,0],[0,0.81,0,0,0],[0,0.88,0,0,0],[0,0.94,0,0,0],[0,1,0,0,0],[0.06,0,0,0,0],[0.06,1,0,0,0],[0.13,0,0,0,0],[0.13,1,0,0,0],[0.19,0,0,0,0],[0.19,1,0,0,0],[0.25,0,0,0,0],[0.25,1,0,0,0],[0.31,0,0,0,0],[0.31,1,0,0,0],[0.38,0,0,0,0],[0.38,1,0,0,0],[0.44,0,0,0,0],[0.44,1,0,0,0],[0.5,0,0,0,0],[0.5,1,0,0,0],[0.56,0,0,0,0],[0.56,1,0,0,0],[0.63,0,0,0,0],[0.63,1,0,0,0],[0.69,0,0,0,0],[0.69,1,0,0,0],[0.75,0,0,0,0],[0.75,1,0,0,0],[0.81,0,0,0,0],[0.81,1,0,0,0],[0.88,0,0,0,0],[0.88,1,0,0,0],[0.94,0,0,0,0],[0.94,1,0,0,0],[1,0,0,0,0],[1,0.06,0,0,0],[1,0.13,0,0,0],[1,0.19,0,0,0],[1,0.25,0,0,0],[1,0.31,0,0,0],[1,0.38,0,0,0],[1,0.44,0,0,0],[1,0.5,0,0,0],[1,0.56,0,0,0],[1,0.63,0,0,0],[1,0.69,0,0,0],[1,0.75,0,0,0],[1,0.81,0,0,0],[1,0.88,0,0,0],[1,0.94,0,0,0],[1,1,0,0,0]];strokeColor=#006EAF;labelBackgroundColor=none;" parent="1" vertex="1" collapsed="1">
          <mxGeometry x="100" y="190" width="290" height="280" as="geometry">
            <mxRectangle x="-440" y="190" width="930" height="970" as="alternateBounds" />
          </mxGeometry>
        </mxCell>
        <mxCell id="20" value="&lt;font style=&quot;border-color: rgb(0, 0, 0); font-family: &amp;quot;Lucida Console&amp;quot;; font-size: 12px; font-style: normal; font-variant-ligatures: normal; font-variant-caps: normal; font-weight: 400; letter-spacing: normal; orphans: 2; text-align: left; text-indent: 0px; text-transform: none; widows: 2; word-spacing: 0px; -webkit-text-stroke-width: 0px; text-decoration-thickness: initial; text-decoration-style: initial; text-decoration-color: initial;&quot; color=&quot;#00cc00&quot;&gt;enter&lt;/font&gt;&lt;span style=&quot;color: rgb(240, 240, 240); font-family: &amp;quot;Lucida Console&amp;quot;; font-size: 12px; font-style: normal; font-variant-ligatures: normal; font-variant-caps: normal; font-weight: 400; letter-spacing: normal; orphans: 2; text-align: left; text-indent: 0px; text-transform: none; widows: 2; word-spacing: 0px; -webkit-text-stroke-width: 0px; text-decoration-thickness: initial; text-decoration-style: initial; text-decoration-color: initial; float: none; display: inline !important;&quot;&gt;&lt;span&gt;&amp;nbsp;&lt;/span&gt;/ {&lt;/span&gt;&lt;br style=&quot;border-color: rgb(0, 0, 0); color: rgb(240, 240, 240); font-family: &amp;quot;Lucida Console&amp;quot;; font-size: 12px; font-style: normal; font-variant-ligatures: normal; font-variant-caps: normal; font-weight: 400; letter-spacing: normal; orphans: 2; text-align: left; text-indent: 0px; text-transform: none; widows: 2; word-spacing: 0px; -webkit-text-stroke-width: 0px; text-decoration-thickness: initial; text-decoration-style: initial; text-decoration-color: initial;&quot;&gt;&lt;span style=&quot;color: rgb(240, 240, 240); font-family: &amp;quot;Lucida Console&amp;quot;; font-size: 12px; font-style: normal; font-variant-ligatures: normal; font-variant-caps: normal; font-weight: 400; letter-spacing: normal; orphans: 2; text-align: left; text-indent: 0px; text-transform: none; widows: 2; word-spacing: 0px; -webkit-text-stroke-width: 0px; text-decoration-thickness: initial; text-decoration-style: initial; text-decoration-color: initial; float: none; display: inline !important;&quot;&gt;&amp;nbsp; e.swellSpeed = 1;&lt;/span&gt;&lt;br style=&quot;border-color: rgb(0, 0, 0); color: rgb(240, 240, 240); font-family: &amp;quot;Lucida Console&amp;quot;; font-size: 12px; font-style: normal; font-variant-ligatures: normal; font-variant-caps: normal; font-weight: 400; letter-spacing: normal; orphans: 2; text-align: left; text-indent: 0px; text-transform: none; widows: 2; word-spacing: 0px; -webkit-text-stroke-width: 0px; text-decoration-thickness: initial; text-decoration-style: initial; text-decoration-color: initial;&quot;&gt;&lt;span style=&quot;color: rgb(240, 240, 240); font-family: &amp;quot;Lucida Console&amp;quot;; font-size: 12px; font-style: normal; font-variant-ligatures: normal; font-variant-caps: normal; font-weight: 400; letter-spacing: normal; orphans: 2; text-align: left; text-indent: 0px; text-transform: none; widows: 2; word-spacing: 0px; -webkit-text-stroke-width: 0px; text-decoration-thickness: initial; text-decoration-style: initial; text-decoration-color: initial; float: none; display: inline !important;&quot;&gt;}&lt;/span&gt;&lt;br&gt;" style="fontFamily=Lucida Console;align=left;verticalAlign=top;fillColor=none;gradientColor=none;strokeColor=none;rounded=0;spacingLeft=4;resizable=0;movable=0;deletable=0;rotatable=0;autosize=1;html=1;fontSize=12;fontColor=default;labelBackgroundColor=none;" parent="19" vertex="1" connectable="0">
          <mxGeometry y="30" width="160" height="60" as="geometry" />
        </mxCell>
        <mxCell id="31" value="DAMAGED" style="edgeStyle=none;html=1;exitX=1;exitY=0.69;exitDx=0;exitDy=0;exitPerimeter=0;entryX=0;entryY=0.25;entryDx=0;entryDy=0;entryPerimeter=0;" parent="19" source="hdPofdkxEfvwtyw9cPgT-24" target="27" edge="1">
          <mxGeometry relative="1" as="geometry" />
        </mxCell>
        <mxCell id="hdPofdkxEfvwtyw9cPgT-24" value="CHECK_VISION" style="shape=swimlane;rotatable=0;align=center;verticalAlign=top;fontFamily=Lucida Console;startSize=30;fontSize=14;fontStyle=1;fontColor=#ffffff;fillColor=#1ba1e2;swimlaneFillColor=default;rounded=1;arcSize=15;absoluteArcSize=1;points=[[0,0,0,0,0],[0,0.06,0,0,0],[0,0.13,0,0,0],[0,0.19,0,0,0],[0,0.25,0,0,0],[0,0.31,0,0,0],[0,0.38,0,0,0],[0,0.44,0,0,0],[0,0.5,0,0,0],[0,0.56,0,0,0],[0,0.63,0,0,0],[0,0.69,0,0,0],[0,0.75,0,0,0],[0,0.81,0,0,0],[0,0.88,0,0,0],[0,0.94,0,0,0],[0,1,0,0,0],[0.06,0,0,0,0],[0.06,1,0,0,0],[0.13,0,0,0,0],[0.13,1,0,0,0],[0.19,0,0,0,0],[0.19,1,0,0,0],[0.25,0,0,0,0],[0.25,1,0,0,0],[0.31,0,0,0,0],[0.31,1,0,0,0],[0.38,0,0,0,0],[0.38,1,0,0,0],[0.44,0,0,0,0],[0.44,1,0,0,0],[0.5,0,0,0,0],[0.5,1,0,0,0],[0.56,0,0,0,0],[0.56,1,0,0,0],[0.63,0,0,0,0],[0.63,1,0,0,0],[0.69,0,0,0,0],[0.69,1,0,0,0],[0.75,0,0,0,0],[0.75,1,0,0,0],[0.81,0,0,0,0],[0.81,1,0,0,0],[0.88,0,0,0,0],[0.88,1,0,0,0],[0.94,0,0,0,0],[0.94,1,0,0,0],[1,0,0,0,0],[1,0.06,0,0,0],[1,0.13,0,0,0],[1,0.19,0,0,0],[1,0.25,0,0,0],[1,0.31,0,0,0],[1,0.38,0,0,0],[1,0.44,0,0,0],[1,0.5,0,0,0],[1,0.56,0,0,0],[1,0.63,0,0,0],[1,0.69,0,0,0],[1,0.75,0,0,0],[1,0.81,0,0,0],[1,0.88,0,0,0],[1,0.94,0,0,0],[1,1,0,0,0]];strokeColor=#006EAF;labelBackgroundColor=none;" parent="19" vertex="1">
          <mxGeometry x="30" y="470" width="830" height="570" as="geometry">
            <mxRectangle x="640" y="180" width="150" height="70" as="alternateBounds" />
          </mxGeometry>
        </mxCell>
        <mxCell id="hdPofdkxEfvwtyw9cPgT-25" value="" style="fontFamily=Lucida Console;align=left;verticalAlign=top;fillColor=none;gradientColor=none;strokeColor=none;rounded=0;spacingLeft=4;resizable=0;movable=0;deletable=0;rotatable=0;autosize=1;html=1;fontSize=12;fontColor=default;labelBackgroundColor=default;" parent="hdPofdkxEfvwtyw9cPgT-24" vertex="1" connectable="0">
          <mxGeometry y="30" width="50" height="40" as="geometry" />
        </mxCell>
        <mxCell id="9" value="DANCE" style="shape=swimlane;rotatable=0;align=center;verticalAlign=top;fontFamily=Lucida Console;startSize=30;fontSize=14;fontStyle=1;fontColor=#ffffff;fillColor=#1ba1e2;swimlaneFillColor=default;rounded=1;arcSize=15;absoluteArcSize=1;points=[[0,0,0,0,0],[0,0.06,0,0,0],[0,0.13,0,0,0],[0,0.19,0,0,0],[0,0.25,0,0,0],[0,0.31,0,0,0],[0,0.38,0,0,0],[0,0.44,0,0,0],[0,0.5,0,0,0],[0,0.56,0,0,0],[0,0.63,0,0,0],[0,0.69,0,0,0],[0,0.75,0,0,0],[0,0.81,0,0,0],[0,0.88,0,0,0],[0,0.94,0,0,0],[0,1,0,0,0],[0.06,0,0,0,0],[0.06,1,0,0,0],[0.13,0,0,0,0],[0.13,1,0,0,0],[0.19,0,0,0,0],[0.19,1,0,0,0],[0.25,0,0,0,0],[0.25,1,0,0,0],[0.31,0,0,0,0],[0.31,1,0,0,0],[0.38,0,0,0,0],[0.38,1,0,0,0],[0.44,0,0,0,0],[0.44,1,0,0,0],[0.5,0,0,0,0],[0.5,1,0,0,0],[0.56,0,0,0,0],[0.56,1,0,0,0],[0.63,0,0,0,0],[0.63,1,0,0,0],[0.69,0,0,0,0],[0.69,1,0,0,0],[0.75,0,0,0,0],[0.75,1,0,0,0],[0.81,0,0,0,0],[0.81,1,0,0,0],[0.88,0,0,0,0],[0.88,1,0,0,0],[0.94,0,0,0,0],[0.94,1,0,0,0],[1,0,0,0,0],[1,0.06,0,0,0],[1,0.13,0,0,0],[1,0.19,0,0,0],[1,0.25,0,0,0],[1,0.31,0,0,0],[1,0.38,0,0,0],[1,0.44,0,0,0],[1,0.5,0,0,0],[1,0.56,0,0,0],[1,0.63,0,0,0],[1,0.69,0,0,0],[1,0.75,0,0,0],[1,0.81,0,0,0],[1,0.88,0,0,0],[1,0.94,0,0,0],[1,1,0,0,0]];strokeColor=#006EAF;labelBackgroundColor=none;" parent="hdPofdkxEfvwtyw9cPgT-24" vertex="1">
          <mxGeometry x="220" y="380" width="340" height="140" as="geometry">
            <mxRectangle x="640" y="180" width="150" height="70" as="alternateBounds" />
          </mxGeometry>
        </mxCell>
        <mxCell id="10" value="&lt;font color=&quot;#00cc00&quot;&gt;enter&lt;/font&gt; / {&lt;br&gt;&amp;nbsp; e.tile(&quot;awake&quot;);&lt;br&gt;&amp;nbsp; timer.set(10);&lt;br&gt;&amp;nbsp; e.dance.enter();&lt;br&gt;}&lt;br&gt;&lt;div&gt;&lt;font color=&quot;#007fff&quot;&gt;do&lt;/font&gt; /&amp;nbsp;e.dance.do();&lt;/div&gt;&lt;div&gt;&lt;font color=&quot;#cc0000&quot;&gt;exit&lt;/font&gt;&amp;nbsp;/ e.dance.exit();&lt;br&gt;&lt;/div&gt;" style="fontFamily=Lucida Console;align=left;verticalAlign=top;fillColor=none;gradientColor=none;strokeColor=none;rounded=0;spacingLeft=4;resizable=0;movable=0;deletable=0;rotatable=0;autosize=1;html=1;fontSize=12;fontColor=default;labelBackgroundColor=default;" parent="9" vertex="1" connectable="0">
          <mxGeometry y="30" width="180" height="110" as="geometry" />
        </mxCell>
        <mxCell id="17" value="&lt;span style=&quot;font-family: &amp;quot;Lucida Console&amp;quot;; font-size: 12px;&quot;&gt;1. [e.waking.isDone()&lt;/span&gt;&lt;span style=&quot;font-family: &amp;quot;Lucida Console&amp;quot;; font-size: 12px;&quot;&gt;]&lt;/span&gt;" style="edgeStyle=none;html=1;exitX=0.5;exitY=1;exitDx=0;exitDy=0;exitPerimeter=0;entryX=0.5;entryY=0;entryDx=0;entryDy=0;entryPerimeter=0;" parent="hdPofdkxEfvwtyw9cPgT-24" source="13" target="fBd5upfGgcvnSKuyYO-v-22" edge="1">
          <mxGeometry x="0.0018" relative="1" as="geometry">
            <mxPoint as="offset" />
          </mxGeometry>
        </mxCell>
        <mxCell id="13" value="WAKING" style="shape=swimlane;rotatable=0;align=center;verticalAlign=top;fontFamily=Lucida Console;startSize=30;fontSize=14;fontStyle=1;fontColor=#ffffff;fillColor=#1ba1e2;swimlaneFillColor=default;rounded=1;arcSize=15;absoluteArcSize=1;points=[[0,0,0,0,0],[0,0.06,0,0,0],[0,0.13,0,0,0],[0,0.19,0,0,0],[0,0.25,0,0,0],[0,0.31,0,0,0],[0,0.38,0,0,0],[0,0.44,0,0,0],[0,0.5,0,0,0],[0,0.56,0,0,0],[0,0.63,0,0,0],[0,0.69,0,0,0],[0,0.75,0,0,0],[0,0.81,0,0,0],[0,0.88,0,0,0],[0,0.94,0,0,0],[0,1,0,0,0],[0.06,0,0,0,0],[0.06,1,0,0,0],[0.13,0,0,0,0],[0.13,1,0,0,0],[0.19,0,0,0,0],[0.19,1,0,0,0],[0.25,0,0,0,0],[0.25,1,0,0,0],[0.31,0,0,0,0],[0.31,1,0,0,0],[0.38,0,0,0,0],[0.38,1,0,0,0],[0.44,0,0,0,0],[0.44,1,0,0,0],[0.5,0,0,0,0],[0.5,1,0,0,0],[0.56,0,0,0,0],[0.56,1,0,0,0],[0.63,0,0,0,0],[0.63,1,0,0,0],[0.69,0,0,0,0],[0.69,1,0,0,0],[0.75,0,0,0,0],[0.75,1,0,0,0],[0.81,0,0,0,0],[0.81,1,0,0,0],[0.88,0,0,0,0],[0.88,1,0,0,0],[0.94,0,0,0,0],[0.94,1,0,0,0],[1,0,0,0,0],[1,0.06,0,0,0],[1,0.13,0,0,0],[1,0.19,0,0,0],[1,0.25,0,0,0],[1,0.31,0,0,0],[1,0.38,0,0,0],[1,0.44,0,0,0],[1,0.5,0,0,0],[1,0.56,0,0,0],[1,0.63,0,0,0],[1,0.69,0,0,0],[1,0.75,0,0,0],[1,0.81,0,0,0],[1,0.88,0,0,0],[1,0.94,0,0,0],[1,1,0,0,0]];strokeColor=#006EAF;labelBackgroundColor=none;" parent="hdPofdkxEfvwtyw9cPgT-24" vertex="1">
          <mxGeometry x="80" y="70" width="270" height="100" as="geometry">
            <mxRectangle x="640" y="180" width="150" height="70" as="alternateBounds" />
          </mxGeometry>
        </mxCell>
        <mxCell id="14" value="&lt;font color=&quot;#00cc00&quot;&gt;enter&lt;/font&gt;&amp;nbsp;/&amp;nbsp;e.waking.enter();&lt;br&gt;&lt;font color=&quot;#007fff&quot;&gt;do&lt;/font&gt;&amp;nbsp;/&amp;nbsp;e.waking.do();&lt;br&gt;&lt;div&gt;&lt;font color=&quot;#007fff&quot;&gt;do&lt;/font&gt;&amp;nbsp;/&amp;nbsp;e.debugCircle(3, &quot;#0F08&quot;);&amp;nbsp;&lt;br&gt;&lt;/div&gt;&lt;div&gt;&lt;font color=&quot;#cc0000&quot;&gt;exit&lt;/font&gt;&amp;nbsp;/ e.waking.exit();&lt;br&gt;&lt;/div&gt;" style="fontFamily=Lucida Console;align=left;verticalAlign=top;fillColor=none;gradientColor=none;strokeColor=none;rounded=0;spacingLeft=4;resizable=0;movable=0;deletable=0;rotatable=0;autosize=1;html=1;fontSize=12;fontColor=default;labelBackgroundColor=default;" parent="13" vertex="1" connectable="0">
          <mxGeometry y="30" width="260" height="70" as="geometry" />
        </mxCell>
        <mxCell id="15" value="FALLING_A_SLEEP" style="shape=swimlane;rotatable=0;align=center;verticalAlign=top;fontFamily=Lucida Console;startSize=30;fontSize=14;fontStyle=1;fontColor=#ffffff;fillColor=#1ba1e2;swimlaneFillColor=default;rounded=1;arcSize=15;absoluteArcSize=1;points=[[0,0,0,0,0],[0,0.06,0,0,0],[0,0.13,0,0,0],[0,0.19,0,0,0],[0,0.25,0,0,0],[0,0.31,0,0,0],[0,0.38,0,0,0],[0,0.44,0,0,0],[0,0.5,0,0,0],[0,0.56,0,0,0],[0,0.63,0,0,0],[0,0.69,0,0,0],[0,0.75,0,0,0],[0,0.81,0,0,0],[0,0.88,0,0,0],[0,0.94,0,0,0],[0,1,0,0,0],[0.06,0,0,0,0],[0.06,1,0,0,0],[0.13,0,0,0,0],[0.13,1,0,0,0],[0.19,0,0,0,0],[0.19,1,0,0,0],[0.25,0,0,0,0],[0.25,1,0,0,0],[0.31,0,0,0,0],[0.31,1,0,0,0],[0.38,0,0,0,0],[0.38,1,0,0,0],[0.44,0,0,0,0],[0.44,1,0,0,0],[0.5,0,0,0,0],[0.5,1,0,0,0],[0.56,0,0,0,0],[0.56,1,0,0,0],[0.63,0,0,0,0],[0.63,1,0,0,0],[0.69,0,0,0,0],[0.69,1,0,0,0],[0.75,0,0,0,0],[0.75,1,0,0,0],[0.81,0,0,0,0],[0.81,1,0,0,0],[0.88,0,0,0,0],[0.88,1,0,0,0],[0.94,0,0,0,0],[0.94,1,0,0,0],[1,0,0,0,0],[1,0.06,0,0,0],[1,0.13,0,0,0],[1,0.19,0,0,0],[1,0.25,0,0,0],[1,0.31,0,0,0],[1,0.38,0,0,0],[1,0.44,0,0,0],[1,0.5,0,0,0],[1,0.56,0,0,0],[1,0.63,0,0,0],[1,0.69,0,0,0],[1,0.75,0,0,0],[1,0.81,0,0,0],[1,0.88,0,0,0],[1,0.94,0,0,0],[1,1,0,0,0]];strokeColor=#006EAF;labelBackgroundColor=none;" parent="hdPofdkxEfvwtyw9cPgT-24" vertex="1">
          <mxGeometry x="420" y="70" width="217.5" height="100" as="geometry">
            <mxRectangle x="640" y="180" width="150" height="70" as="alternateBounds" />
          </mxGeometry>
        </mxCell>
        <mxCell id="16" value="&lt;font color=&quot;#00cc00&quot;&gt;enter&lt;/font&gt;&amp;nbsp;/&amp;nbsp;e.lulling.enter();&lt;br&gt;&lt;div&gt;&lt;font color=&quot;#007fff&quot;&gt;do&lt;/font&gt;&amp;nbsp;/ e.lulling.do();&lt;/div&gt;&lt;div&gt;&lt;font color=&quot;#cc0000&quot;&gt;exit&lt;/font&gt;&amp;nbsp;/ e.lulling.exit();&lt;/div&gt;" style="fontFamily=Lucida Console;align=left;verticalAlign=top;fillColor=none;gradientColor=none;strokeColor=none;rounded=0;spacingLeft=4;resizable=0;movable=0;deletable=0;rotatable=0;autosize=1;html=1;fontSize=12;fontColor=default;labelBackgroundColor=default;" parent="15" vertex="1" connectable="0">
          <mxGeometry y="30" width="210" height="60" as="geometry" />
        </mxCell>
        <mxCell id="12" value="1. [timer.elapsed() &amp;amp;&amp;amp;&lt;br&gt;e.dance.isDone()]" style="edgeStyle=none;html=1;exitX=0.88;exitY=0;exitDx=0;exitDy=0;exitPerimeter=0;fontFamily=Lucida Console;fontSize=12;entryX=0.56;entryY=1;entryDx=0;entryDy=0;entryPerimeter=0;" parent="hdPofdkxEfvwtyw9cPgT-24" source="9" target="15" edge="1">
          <mxGeometry relative="1" as="geometry">
            <mxPoint x="444" y="280" as="targetPoint" />
          </mxGeometry>
        </mxCell>
        <mxCell id="fBd5upfGgcvnSKuyYO-v-23" value="[e.playerDist() &amp;lt; 3 ||&lt;br&gt;rand() &amp;lt; 0.5]" style="edgeStyle=none;html=1;exitX=0.5;exitY=1;exitDx=0;exitDy=0;exitPerimeter=0;entryX=0.31;entryY=0;entryDx=0;entryDy=0;entryPerimeter=0;fontFamily=Lucida Console;fontSize=12;" parent="hdPofdkxEfvwtyw9cPgT-24" source="fBd5upfGgcvnSKuyYO-v-22" target="9" edge="1">
          <mxGeometry relative="1" as="geometry" />
        </mxCell>
        <mxCell id="fBd5upfGgcvnSKuyYO-v-24" value="else" style="edgeStyle=none;html=1;exitX=1;exitY=0.5;exitDx=0;exitDy=0;exitPerimeter=0;entryX=0.19;entryY=1;entryDx=0;entryDy=0;entryPerimeter=0;fontFamily=Lucida Console;fontSize=12;" parent="hdPofdkxEfvwtyw9cPgT-24" source="fBd5upfGgcvnSKuyYO-v-22" target="15" edge="1">
          <mxGeometry relative="1" as="geometry">
            <Array as="points">
              <mxPoint x="410" y="240" />
            </Array>
          </mxGeometry>
        </mxCell>
        <mxCell id="fBd5upfGgcvnSKuyYO-v-22" value="$choice" style="fontFamily=Lucida Console;align=center;verticalAlign=middle;shape=rhombus;rotatable=0;labelPosition=center;verticalLabelPosition=top;strokeWidth=1;fillColor=#FFFFFF;gradientColor=#d4d4d4cc;noLabel=1;points=[[0,0.5,0,0,0],[0.25,0.25,0,0,0],[0.25,0.78,0,0,0],[0.5,0,0,0,0],[0.5,1,0,0,0],[0.75,0.78,0,0,0],[0.8,0.25,0,0,0],[1,0.5,0,0,0]];" parent="hdPofdkxEfvwtyw9cPgT-24" vertex="1">
          <mxGeometry x="280" y="240" width="40" height="40" as="geometry" />
        </mxCell>
        <mxCell id="25" value="else" style="edgeStyle=none;html=1;exitX=0.25;exitY=0.78;exitDx=0;exitDy=0;exitPerimeter=0;entryX=1;entryY=0.56;entryDx=0;entryDy=0;entryPerimeter=0;fontSize=12;fontFamily=Lucida Console;" parent="hdPofdkxEfvwtyw9cPgT-24" source="23" target="9" edge="1">
          <mxGeometry relative="1" as="geometry" />
        </mxCell>
        <mxCell id="26" value="[rand() &amp;gt; 0.5]" style="edgeStyle=none;shape=connector;rounded=1;html=1;entryX=1;entryY=1;entryDx=0;entryDy=0;entryPerimeter=0;labelBackgroundColor=default;strokeColor=default;fontFamily=Lucida Console;fontSize=12;fontColor=default;endArrow=classic;exitX=0.25;exitY=0.25;exitDx=0;exitDy=0;exitPerimeter=0;" parent="hdPofdkxEfvwtyw9cPgT-24" source="23" target="15" edge="1">
          <mxGeometry relative="1" as="geometry">
            <mxPoint x="770" y="200" as="sourcePoint" />
          </mxGeometry>
        </mxCell>
        <mxCell id="23" value="$choice" style="fontFamily=Lucida Console;align=center;verticalAlign=middle;shape=rhombus;rotatable=0;labelPosition=center;verticalLabelPosition=top;strokeWidth=1;fillColor=#FFFFFF;gradientColor=#d4d4d4cc;noLabel=1;points=[[0,0.5,0,0,0],[0.25,0.25,0,0,0],[0.25,0.78,0,0,0],[0.5,0,0,0,0],[0.5,1,0,0,0],[0.75,0.78,0,0,0],[0.8,0.25,0,0,0],[1,0.5,0,0,0]];" parent="hdPofdkxEfvwtyw9cPgT-24" vertex="1">
          <mxGeometry x="720" y="265" width="40" height="40" as="geometry" />
        </mxCell>
        <mxCell id="gXIQXWJeLBFqDzgiwE1A-4" style="rounded=0;orthogonalLoop=1;jettySize=auto;html=1;exitX=0;exitY=0.5;exitDx=0;exitDy=0;entryX=1;entryY=0.5;entryDx=0;entryDy=0;entryPerimeter=0;" parent="19" source="ZIOTUwtG6jgaDJF-H-SD-59" target="23" edge="1">
          <mxGeometry relative="1" as="geometry">
            <mxPoint x="620" y="95.45454545454545" as="targetPoint" />
          </mxGeometry>
        </mxCell>
        <mxCell id="11" value="via exit 1" style="edgeStyle=none;html=1;exitX=0.19;exitY=1;exitDx=0;exitDy=0;exitPerimeter=0;fontSize=12;fontFamily=Lucida Console;entryX=0.5;entryY=0;entryDx=0;entryDy=0;entryPerimeter=0;labelBackgroundColor=none;" parent="19" source="Q9ECF8ZZ4cc2KDeR4uCh-1" target="13" edge="1">
          <mxGeometry x="-0.4236" y="7" relative="1" as="geometry">
            <mxPoint as="offset" />
            <mxPoint x="145" y="310" as="targetPoint" />
          </mxGeometry>
        </mxCell>
        <mxCell id="18" value="&lt;span style=&quot;font-family: &amp;quot;Lucida Console&amp;quot;; font-size: 12px;&quot;&gt;1. [e.lulling.isDone()]&lt;/span&gt;" style="edgeStyle=none;html=1;exitX=0.5;exitY=0;exitDx=0;exitDy=0;exitPerimeter=0;entryX=0.81;entryY=1;entryDx=0;entryDy=0;entryPerimeter=0;" parent="19" source="15" target="Q9ECF8ZZ4cc2KDeR4uCh-1" edge="1">
          <mxGeometry relative="1" as="geometry" />
        </mxCell>
        <mxCell id="Q9ECF8ZZ4cc2KDeR4uCh-5" value="[e.canSeePlayer(6)]" style="rounded=0;orthogonalLoop=1;jettySize=auto;html=1;fontSize=12;fontFamily=Lucida Console;exitX=1;exitY=0.75;exitDx=0;exitDy=0;exitPerimeter=0;entryX=0;entryY=0.56;entryDx=0;entryDy=0;entryPerimeter=0;" parent="19" source="hdPofdkxEfvwtyw9cPgT-24" target="27" edge="1">
          <mxGeometry x="0.0027" relative="1" as="geometry">
            <mxPoint x="698.75" y="-20" as="sourcePoint" />
            <mxPoint as="offset" />
            <mxPoint x="950" y="890" as="targetPoint" />
          </mxGeometry>
        </mxCell>
        <mxCell id="30" value="DAMAGED" style="edgeStyle=none;html=1;exitX=1;exitY=0.5;exitDx=0;exitDy=0;exitPerimeter=0;entryX=0.56;entryY=0;entryDx=0;entryDy=0;entryPerimeter=0;" parent="19" source="Q9ECF8ZZ4cc2KDeR4uCh-1" target="27" edge="1">
          <mxGeometry relative="1" as="geometry">
            <Array as="points">
              <mxPoint x="1160" y="230" />
            </Array>
          </mxGeometry>
        </mxCell>
        <mxCell id="ZIOTUwtG6jgaDJF-H-SD-59" value="$initial_state" style="shape=ellipse;aspect=fixed;fillColor=#000000;resizable=0;rotatable=0;noLabel=1;" parent="19" vertex="1">
          <mxGeometry x="910" y="742.5" width="25" height="25" as="geometry" />
        </mxCell>
        <mxCell id="29" value="[&lt;span style=&quot;font-family: &amp;quot;Lucida Console&amp;quot;; font-size: 12px; text-align: left;&quot;&gt;e.surprised.isDone()]&lt;/span&gt;" style="edgeStyle=none;html=1;exitX=1;exitY=0.19;exitDx=0;exitDy=0;exitPerimeter=0;entryX=0;entryY=0.5;entryDx=0;entryDy=0;entryPerimeter=0;" parent="19" source="27" target="jmfpwNvJTStH2VVPo99P-33" edge="1">
          <mxGeometry relative="1" as="geometry" />
        </mxCell>
        <mxCell id="32" value="DAMAGED " style="edgeStyle=none;exitX=1;exitY=0.81;exitDx=0;exitDy=0;exitPerimeter=0;entryX=0.25;entryY=0.78;entryDx=0;entryDy=0;fontFamily=Lucida Console;fontSize=12;entryPerimeter=0;" parent="19" source="27" target="jmfpwNvJTStH2VVPo99P-33" edge="1">
          <mxGeometry x="-0.0224" y="-4" relative="1" as="geometry">
            <mxPoint as="offset" />
          </mxGeometry>
        </mxCell>
        <mxCell id="27" value="SURPRISED" style="shape=swimlane;rotatable=0;align=center;verticalAlign=top;fontFamily=Lucida Console;startSize=30;fontSize=14;fontStyle=1;fontColor=#ffffff;fillColor=#1ba1e2;swimlaneFillColor=default;rounded=1;arcSize=15;absoluteArcSize=1;points=[[0,0,0,0,0],[0,0.06,0,0,0],[0,0.13,0,0,0],[0,0.19,0,0,0],[0,0.25,0,0,0],[0,0.31,0,0,0],[0,0.38,0,0,0],[0,0.44,0,0,0],[0,0.5,0,0,0],[0,0.56,0,0,0],[0,0.63,0,0,0],[0,0.69,0,0,0],[0,0.75,0,0,0],[0,0.81,0,0,0],[0,0.88,0,0,0],[0,0.94,0,0,0],[0,1,0,0,0],[0.06,0,0,0,0],[0.06,1,0,0,0],[0.13,0,0,0,0],[0.13,1,0,0,0],[0.19,0,0,0,0],[0.19,1,0,0,0],[0.25,0,0,0,0],[0.25,1,0,0,0],[0.31,0,0,0,0],[0.31,1,0,0,0],[0.38,0,0,0,0],[0.38,1,0,0,0],[0.44,0,0,0,0],[0.44,1,0,0,0],[0.5,0,0,0,0],[0.5,1,0,0,0],[0.56,0,0,0,0],[0.56,1,0,0,0],[0.63,0,0,0,0],[0.63,1,0,0,0],[0.69,0,0,0,0],[0.69,1,0,0,0],[0.75,0,0,0,0],[0.75,1,0,0,0],[0.81,0,0,0,0],[0.81,1,0,0,0],[0.88,0,0,0,0],[0.88,1,0,0,0],[0.94,0,0,0,0],[0.94,1,0,0,0],[1,0,0,0,0],[1,0.06,0,0,0],[1,0.13,0,0,0],[1,0.19,0,0,0],[1,0.25,0,0,0],[1,0.31,0,0,0],[1,0.38,0,0,0],[1,0.44,0,0,0],[1,0.5,0,0,0],[1,0.56,0,0,0],[1,0.63,0,0,0],[1,0.69,0,0,0],[1,0.75,0,0,0],[1,0.81,0,0,0],[1,0.88,0,0,0],[1,0.94,0,0,0],[1,1,0,0,0]];strokeColor=#006EAF;labelBackgroundColor=none;" parent="19" vertex="1">
          <mxGeometry x="1050" y="840" width="230" height="100" as="geometry">
            <mxRectangle x="640" y="180" width="150" height="70" as="alternateBounds" />
          </mxGeometry>
        </mxCell>
        <mxCell id="28" value="&lt;font color=&quot;#00cc00&quot;&gt;enter&lt;/font&gt;&amp;nbsp;/&amp;nbsp;e.surprised.enter();&lt;br&gt;&lt;div&gt;&lt;font color=&quot;#007fff&quot;&gt;do&lt;/font&gt;&amp;nbsp;/ e.surprised.do();&lt;/div&gt;&lt;div&gt;&lt;font color=&quot;#cc0000&quot;&gt;exit&lt;/font&gt;&amp;nbsp;/ e.surprised.exit();&lt;/div&gt;" style="fontFamily=Lucida Console;align=left;verticalAlign=top;fillColor=none;gradientColor=none;strokeColor=none;rounded=0;spacingLeft=4;resizable=0;movable=0;deletable=0;rotatable=0;autosize=1;html=1;fontSize=12;fontColor=default;labelBackgroundColor=default;" parent="27" vertex="1" connectable="0">
          <mxGeometry y="30" width="230" height="60" as="geometry" />
        </mxCell>
        <mxCell id="jmfpwNvJTStH2VVPo99P-36" value="[rand() &lt; 0.5]" style="edgeStyle=none;html=0;exitX=1;exitY=0.5;exitDx=0;exitDy=0;exitPerimeter=0;entryX=0;entryY=0.5;entryDx=0;entryDy=0;fontFamily=Lucida Console;fontSize=12;" parent="19" source="jmfpwNvJTStH2VVPo99P-33" target="jmfpwNvJTStH2VVPo99P-45" edge="1">
          <mxGeometry relative="1" as="geometry">
            <mxPoint x="1780" y="866" as="targetPoint" />
          </mxGeometry>
        </mxCell>
        <mxCell id="jmfpwNvJTStH2VVPo99P-39" style="html=0;exitX=0.75;exitY=0.78;exitDx=0;exitDy=0;exitPerimeter=0;fontFamily=Lucida Console;fontSize=12;" parent="19" source="jmfpwNvJTStH2VVPo99P-33" target="hdPofdkxEfvwtyw9cPgT-22" edge="1">
          <mxGeometry relative="1" as="geometry">
            <Array as="points">
              <mxPoint x="1610" y="960" />
            </Array>
          </mxGeometry>
        </mxCell>
        <mxCell id="jmfpwNvJTStH2VVPo99P-40" value="else / e.jumpTowardsPlayer()" style="edgeLabel;html=1;align=center;verticalAlign=middle;resizable=0;points=[];fontSize=12;fontFamily=Lucida Console;" parent="jmfpwNvJTStH2VVPo99P-39" vertex="1" connectable="0">
          <mxGeometry x="-0.6153" y="3" relative="1" as="geometry">
            <mxPoint x="23" y="-25" as="offset" />
          </mxGeometry>
        </mxCell>
        <mxCell id="jmfpwNvJTStH2VVPo99P-33" value="$choice" style="fontFamily=Lucida Console;align=center;verticalAlign=middle;shape=rhombus;rotatable=0;labelPosition=center;verticalLabelPosition=top;strokeWidth=1;fillColor=#FFFFFF;gradientColor=#d4d4d4cc;noLabel=1;points=[[0,0.5,0,0,0],[0.25,0.25,0,0,0],[0.25,0.78,0,0,0],[0.5,0,0,0,0],[0.5,1,0,0,0],[0.75,0.78,0,0,0],[0.8,0.25,0,0,0],[1,0.5,0,0,0]];" parent="19" vertex="1">
          <mxGeometry x="1590" y="850" width="40" height="40" as="geometry" />
        </mxCell>
        <mxCell id="hdPofdkxEfvwtyw9cPgT-22" value="exit : hunt" style="fontFamily=Lucida Console;align=center;verticalAlign=middle;shape=ellipse;aspect=fixed;resizable=0;rotatable=0;labelPosition=center;verticalLabelPosition=top;strokeColor=#b11f1f;strokeWidth=4;fillColor=#FFFFFF;gradientColor=#d4d4d4cc;" parent="19" vertex="1">
          <mxGeometry x="1870" y="930" width="30" height="30" as="geometry" />
        </mxCell>
        <mxCell id="jmfpwNvJTStH2VVPo99P-45" value="exit : sound_alarm" style="fontFamily=Lucida Console;align=center;verticalAlign=middle;shape=ellipse;aspect=fixed;resizable=0;rotatable=0;labelPosition=center;verticalLabelPosition=top;strokeColor=#b11f1f;strokeWidth=4;fillColor=#FFFFFF;gradientColor=#d4d4d4cc;" parent="19" vertex="1">
          <mxGeometry x="1870" y="855" width="30" height="30" as="geometry" />
        </mxCell>
        <mxCell id="jmfpwNvJTStH2VVPo99P-32" value="jumping at player prevents player from easily shooting them down while surprised.&lt;div&gt;&lt;/div&gt;" style="shape=note;strokeWidth=2;fontSize=14;size=11;whiteSpace=wrap;html=1;fillColor=#fff2cc;strokeColor=#d6b656;fontColor=#303000;align=left;spacingLeft=5;verticalAlign=middle;fontFamily=Helvetica;" parent="19" vertex="1">
          <mxGeometry x="1320" y="930" width="190" height="56.25" as="geometry" />
        </mxCell>
        <mxCell id="Q9ECF8ZZ4cc2KDeR4uCh-1" value="SLEEPING" style="shape=swimlane;rotatable=0;align=center;verticalAlign=top;fontFamily=Lucida Console;startSize=30;fontSize=14;fontStyle=1;fontColor=#ffffff;fillColor=#1ba1e2;swimlaneFillColor=default;rounded=1;arcSize=15;absoluteArcSize=1;points=[[0,0,0,0,0],[0,0.06,0,0,0],[0,0.13,0,0,0],[0,0.19,0,0,0],[0,0.25,0,0,0],[0,0.31,0,0,0],[0,0.38,0,0,0],[0,0.44,0,0,0],[0,0.5,0,0,0],[0,0.56,0,0,0],[0,0.63,0,0,0],[0,0.69,0,0,0],[0,0.75,0,0,0],[0,0.81,0,0,0],[0,0.88,0,0,0],[0,0.94,0,0,0],[0,1,0,0,0],[0.06,0,0,0,0],[0.06,1,0,0,0],[0.13,0,0,0,0],[0.13,1,0,0,0],[0.19,0,0,0,0],[0.19,1,0,0,0],[0.25,0,0,0,0],[0.25,1,0,0,0],[0.31,0,0,0,0],[0.31,1,0,0,0],[0.38,0,0,0,0],[0.38,1,0,0,0],[0.44,0,0,0,0],[0.44,1,0,0,0],[0.5,0,0,0,0],[0.5,1,0,0,0],[0.56,0,0,0,0],[0.56,1,0,0,0],[0.63,0,0,0,0],[0.63,1,0,0,0],[0.69,0,0,0,0],[0.69,1,0,0,0],[0.75,0,0,0,0],[0.75,1,0,0,0],[0.81,0,0,0,0],[0.81,1,0,0,0],[0.88,0,0,0,0],[0.88,1,0,0,0],[0.94,0,0,0,0],[0.94,1,0,0,0],[1,0,0,0,0],[1,0.06,0,0,0],[1,0.13,0,0,0],[1,0.19,0,0,0],[1,0.25,0,0,0],[1,0.31,0,0,0],[1,0.38,0,0,0],[1,0.44,0,0,0],[1,0.5,0,0,0],[1,0.56,0,0,0],[1,0.63,0,0,0],[1,0.69,0,0,0],[1,0.75,0,0,0],[1,0.81,0,0,0],[1,0.88,0,0,0],[1,0.94,0,0,0],[1,1,0,0,0]];strokeColor=#006EAF;labelBackgroundColor=none;" parent="19" vertex="1" collapsed="1">
          <mxGeometry y="110" width="650" height="180" as="geometry">
            <mxRectangle x="220" y="110" width="260" height="260" as="alternateBounds" />
          </mxGeometry>
        </mxCell>
        <mxCell id="Q9ECF8ZZ4cc2KDeR4uCh-2" value="&lt;font color=&quot;#00cc00&quot;&gt;enter&lt;/font&gt; / {&lt;br&gt;&amp;nbsp; e.tile(&quot;sleeping&quot;);&lt;br&gt;&amp;nbsp; e.disableAttack = true;&lt;br&gt;}&lt;br&gt;&lt;font color=&quot;#007fff&quot;&gt;do&lt;/font&gt; / {&lt;br&gt;&lt;div&gt;&lt;/div&gt;&lt;div&gt;}&lt;br&gt;&lt;font color=&quot;#cc0000&quot;&gt;exit&lt;/font&gt;&amp;nbsp; / {&lt;br&gt;&amp;nbsp; e.disableAttack = false;&lt;/div&gt;&lt;div&gt;}&lt;/div&gt;" style="fontFamily=Lucida Console;align=left;verticalAlign=top;fillColor=none;gradientColor=none;strokeColor=none;rounded=0;spacingLeft=4;resizable=0;movable=0;deletable=0;rotatable=0;autosize=1;html=1;fontSize=12;fontColor=default;labelBackgroundColor=default;" parent="Q9ECF8ZZ4cc2KDeR4uCh-1" vertex="1" connectable="0">
          <mxGeometry y="30" width="210" height="140" as="geometry" />
        </mxCell>
        <mxCell id="EKqmGuzHJmko1qDDIJdT-41" value="&lt;span style=&quot;font-family: &amp;quot;Lucida Console&amp;quot;; font-size: 12px;&quot;&gt;[timer.elapsed() ||&lt;/span&gt;&lt;br style=&quot;font-family: &amp;quot;Lucida Console&amp;quot;; font-size: 12px;&quot;&gt;&lt;span style=&quot;font-family: &amp;quot;Lucida Console&amp;quot;; font-size: 12px;&quot;&gt;e.playerDist() &amp;lt; 1]&lt;/span&gt;" style="edgeStyle=none;html=1;exitX=0.19;exitY=1;exitDx=0;exitDy=0;exitPerimeter=0;entryX=0.19;entryY=0;entryDx=0;entryDy=0;entryPerimeter=0;" parent="Q9ECF8ZZ4cc2KDeR4uCh-1" source="EKqmGuzHJmko1qDDIJdT-36" target="EKqmGuzHJmko1qDDIJdT-39" edge="1">
          <mxGeometry relative="1" as="geometry" />
        </mxCell>
        <mxCell id="EKqmGuzHJmko1qDDIJdT-36" value="DEEP_SLEEP" style="shape=swimlane;rotatable=0;align=center;verticalAlign=top;fontFamily=Lucida Console;startSize=30;fontSize=14;fontStyle=1;fontColor=#ffffff;fillColor=#1ba1e2;swimlaneFillColor=default;rounded=1;arcSize=15;absoluteArcSize=1;points=[[0,0,0,0,0],[0,0.06,0,0,0],[0,0.13,0,0,0],[0,0.19,0,0,0],[0,0.25,0,0,0],[0,0.31,0,0,0],[0,0.38,0,0,0],[0,0.44,0,0,0],[0,0.5,0,0,0],[0,0.56,0,0,0],[0,0.63,0,0,0],[0,0.69,0,0,0],[0,0.75,0,0,0],[0,0.81,0,0,0],[0,0.88,0,0,0],[0,0.94,0,0,0],[0,1,0,0,0],[0.06,0,0,0,0],[0.06,1,0,0,0],[0.13,0,0,0,0],[0.13,1,0,0,0],[0.19,0,0,0,0],[0.19,1,0,0,0],[0.25,0,0,0,0],[0.25,1,0,0,0],[0.31,0,0,0,0],[0.31,1,0,0,0],[0.38,0,0,0,0],[0.38,1,0,0,0],[0.44,0,0,0,0],[0.44,1,0,0,0],[0.5,0,0,0,0],[0.5,1,0,0,0],[0.56,0,0,0,0],[0.56,1,0,0,0],[0.63,0,0,0,0],[0.63,1,0,0,0],[0.69,0,0,0,0],[0.69,1,0,0,0],[0.75,0,0,0,0],[0.75,1,0,0,0],[0.81,0,0,0,0],[0.81,1,0,0,0],[0.88,0,0,0,0],[0.88,1,0,0,0],[0.94,0,0,0,0],[0.94,1,0,0,0],[1,0,0,0,0],[1,0.06,0,0,0],[1,0.13,0,0,0],[1,0.19,0,0,0],[1,0.25,0,0,0],[1,0.31,0,0,0],[1,0.38,0,0,0],[1,0.44,0,0,0],[1,0.5,0,0,0],[1,0.56,0,0,0],[1,0.63,0,0,0],[1,0.69,0,0,0],[1,0.75,0,0,0],[1,0.81,0,0,0],[1,0.88,0,0,0],[1,0.94,0,0,0],[1,1,0,0,0]];strokeColor=#006EAF;labelBackgroundColor=none;" parent="Q9ECF8ZZ4cc2KDeR4uCh-1" vertex="1">
          <mxGeometry x="40" y="280" width="270" height="130" as="geometry">
            <mxRectangle x="640" y="180" width="150" height="70" as="alternateBounds" />
          </mxGeometry>
        </mxCell>
        <mxCell id="EKqmGuzHJmko1qDDIJdT-37" value="&lt;font color=&quot;#00cc00&quot;&gt;enter&lt;/font&gt;&amp;nbsp;/ timer.set(rand(3,8));&lt;br&gt;&lt;font color=&quot;#007fff&quot;&gt;do&lt;/font&gt;&amp;nbsp;/ {&lt;br&gt;&lt;div&gt;&lt;/div&gt;&amp;nbsp; e.debugCircle(1, &quot;#0F08&quot;);&amp;nbsp;&lt;br&gt;&amp;nbsp; e.debugTextAboveMe(&quot;zzz...&quot;);&lt;br&gt;&lt;div&gt;}&lt;/div&gt;&lt;div&gt;&lt;font color=&quot;#cc0000&quot;&gt;exit&lt;/font&gt;&amp;nbsp;/&amp;nbsp;&lt;br&gt;&lt;/div&gt;" style="fontFamily=Lucida Console;align=left;verticalAlign=top;fillColor=none;gradientColor=none;strokeColor=none;rounded=0;spacingLeft=4;resizable=0;movable=0;deletable=0;rotatable=0;autosize=1;html=1;fontSize=12;fontColor=default;labelBackgroundColor=default;" parent="EKqmGuzHJmko1qDDIJdT-36" vertex="1" connectable="0">
          <mxGeometry y="30" width="250" height="100" as="geometry" />
        </mxCell>
        <mxCell id="EKqmGuzHJmko1qDDIJdT-38" style="edgeStyle=none;html=1;exitX=0.5;exitY=1;exitDx=0;exitDy=0;entryX=0.5;entryY=0;entryDx=0;entryDy=0;entryPerimeter=0;" parent="Q9ECF8ZZ4cc2KDeR4uCh-1" source="EKqmGuzHJmko1qDDIJdT-33" target="EKqmGuzHJmko1qDDIJdT-36" edge="1">
          <mxGeometry relative="1" as="geometry" />
        </mxCell>
        <mxCell id="EKqmGuzHJmko1qDDIJdT-33" value="$initial_state" style="shape=ellipse;aspect=fixed;fillColor=#000000;resizable=0;rotatable=0;noLabel=1;" parent="Q9ECF8ZZ4cc2KDeR4uCh-1" vertex="1">
          <mxGeometry x="170" y="220" width="25" height="25" as="geometry" />
        </mxCell>
        <mxCell id="WeFEacNSxy13Kq7vbZp0-33" value="&lt;font style=&quot;font-size: 12px;&quot; face=&quot;Lucida Console&quot;&gt;[timer.elapsed()]&lt;/font&gt;" style="edgeStyle=none;html=1;" parent="Q9ECF8ZZ4cc2KDeR4uCh-1" source="EKqmGuzHJmko1qDDIJdT-39" target="WeFEacNSxy13Kq7vbZp0-32" edge="1">
          <mxGeometry relative="1" as="geometry" />
        </mxCell>
        <mxCell id="EKqmGuzHJmko1qDDIJdT-39" value="ABOUT_TO_STIR" style="shape=swimlane;rotatable=0;align=center;verticalAlign=top;fontFamily=Lucida Console;startSize=30;fontSize=14;fontStyle=1;fontColor=#ffffff;fillColor=#1ba1e2;swimlaneFillColor=default;rounded=1;arcSize=15;absoluteArcSize=1;points=[[0,0,0,0,0],[0,0.06,0,0,0],[0,0.13,0,0,0],[0,0.19,0,0,0],[0,0.25,0,0,0],[0,0.31,0,0,0],[0,0.38,0,0,0],[0,0.44,0,0,0],[0,0.5,0,0,0],[0,0.56,0,0,0],[0,0.63,0,0,0],[0,0.69,0,0,0],[0,0.75,0,0,0],[0,0.81,0,0,0],[0,0.88,0,0,0],[0,0.94,0,0,0],[0,1,0,0,0],[0.06,0,0,0,0],[0.06,1,0,0,0],[0.13,0,0,0,0],[0.13,1,0,0,0],[0.19,0,0,0,0],[0.19,1,0,0,0],[0.25,0,0,0,0],[0.25,1,0,0,0],[0.31,0,0,0,0],[0.31,1,0,0,0],[0.38,0,0,0,0],[0.38,1,0,0,0],[0.44,0,0,0,0],[0.44,1,0,0,0],[0.5,0,0,0,0],[0.5,1,0,0,0],[0.56,0,0,0,0],[0.56,1,0,0,0],[0.63,0,0,0,0],[0.63,1,0,0,0],[0.69,0,0,0,0],[0.69,1,0,0,0],[0.75,0,0,0,0],[0.75,1,0,0,0],[0.81,0,0,0,0],[0.81,1,0,0,0],[0.88,0,0,0,0],[0.88,1,0,0,0],[0.94,0,0,0,0],[0.94,1,0,0,0],[1,0,0,0,0],[1,0.06,0,0,0],[1,0.13,0,0,0],[1,0.19,0,0,0],[1,0.25,0,0,0],[1,0.31,0,0,0],[1,0.38,0,0,0],[1,0.44,0,0,0],[1,0.5,0,0,0],[1,0.56,0,0,0],[1,0.63,0,0,0],[1,0.69,0,0,0],[1,0.75,0,0,0],[1,0.81,0,0,0],[1,0.88,0,0,0],[1,0.94,0,0,0],[1,1,0,0,0]];strokeColor=#006EAF;labelBackgroundColor=none;" parent="Q9ECF8ZZ4cc2KDeR4uCh-1" vertex="1">
          <mxGeometry x="40" y="520" width="270" height="130" as="geometry">
            <mxRectangle x="640" y="180" width="150" height="70" as="alternateBounds" />
          </mxGeometry>
        </mxCell>
        <mxCell id="EKqmGuzHJmko1qDDIJdT-40" value="&lt;font color=&quot;#00cc00&quot;&gt;enter&lt;/font&gt;&amp;nbsp;/ timer.set(rand(0.5, 2));&lt;br&gt;&lt;font color=&quot;#007fff&quot;&gt;do&lt;/font&gt;&amp;nbsp;/ {&lt;br&gt;&lt;div&gt;&lt;/div&gt;&amp;nbsp; e.debugTextAboveMe(&quot;zz..&quot;);&lt;br&gt;&lt;div&gt;}&lt;/div&gt;&lt;div&gt;&lt;font color=&quot;#cc0000&quot;&gt;exit&lt;/font&gt;&amp;nbsp;/&amp;nbsp;&lt;br&gt;&lt;/div&gt;" style="fontFamily=Lucida Console;align=left;verticalAlign=top;fillColor=none;gradientColor=none;strokeColor=none;rounded=0;spacingLeft=4;resizable=0;movable=0;deletable=0;rotatable=0;autosize=1;html=1;fontSize=12;fontColor=default;labelBackgroundColor=default;" parent="EKqmGuzHJmko1qDDIJdT-39" vertex="1" connectable="0">
          <mxGeometry y="30" width="260" height="90" as="geometry" />
        </mxCell>
        <mxCell id="WeFEacNSxy13Kq7vbZp0-32" value="exit : 1" style="fontFamily=Lucida Console;align=center;verticalAlign=middle;shape=ellipse;aspect=fixed;resizable=0;rotatable=0;labelPosition=center;verticalLabelPosition=top;strokeColor=#b11f1f;strokeWidth=4;fillColor=#FFFFFF;gradientColor=#d4d4d4cc;" parent="Q9ECF8ZZ4cc2KDeR4uCh-1" vertex="1">
          <mxGeometry x="510" y="580" width="30" height="30" as="geometry" />
        </mxCell>
        <mxCell id="WZ_KRw59axL-cVMneiF5-33" value="ALARM" style="edgeStyle=none;html=1;exitX=0.5;exitY=0;exitDx=0;exitDy=0;entryX=0.5;entryY=1;entryDx=0;entryDy=0;fontFamily=Lucida Console;" parent="19" source="WZ_KRw59axL-cVMneiF5-32" target="hdPofdkxEfvwtyw9cPgT-22" edge="1">
          <mxGeometry relative="1" as="geometry" />
        </mxCell>
        <mxCell id="WZ_KRw59axL-cVMneiF5-32" value="$PARENT_ALIAS" style="rounded=1;whiteSpace=wrap;html=1;verticalAlign=middle;align=center;spacingLeft=2;arcSize=9;fontFamily=Lucida Console;fillColor=#d80073;fontColor=#ffffff;strokeColor=#A50040;" parent="19" vertex="1">
          <mxGeometry x="1812.5" y="1050" width="145" height="30" as="geometry" />
        </mxCell>
        <mxCell id="2" value="&lt;font face=&quot;Lucida Console&quot;&gt;&lt;span style=&quot;font-size: 12px;&quot;&gt;via exit idle&lt;/span&gt;&lt;/font&gt;" style="edgeStyle=none;html=1;exitX=0;exitY=0.25;exitDx=0;exitDy=0;exitPerimeter=0;entryX=1;entryY=0.19;entryDx=0;entryDy=0;entryPerimeter=0;" parent="1" source="Q9ECF8ZZ4cc2KDeR4uCh-3" target="19" edge="1">
          <mxGeometry relative="1" as="geometry" />
        </mxCell>
        <mxCell id="22" style="edgeStyle=none;html=1;" parent="1" source="21" target="19" edge="1">
          <mxGeometry relative="1" as="geometry" />
        </mxCell>
        <mxCell id="21" value="$initial_state" style="shape=ellipse;aspect=fixed;fillColor=#000000;resizable=0;rotatable=0;noLabel=1;" parent="1" vertex="1">
          <mxGeometry x="232.5" y="110" width="25" height="25" as="geometry" />
        </mxCell>
        <mxCell id="jmfpwNvJTStH2VVPo99P-51" value="SOUND_ALARM" style="shape=swimlane;rotatable=0;align=center;verticalAlign=top;fontFamily=Lucida Console;startSize=30;fontSize=14;fontStyle=1;fontColor=#ffffff;fillColor=#1ba1e2;swimlaneFillColor=default;rounded=1;arcSize=15;absoluteArcSize=1;points=[[0,0,0,0,0],[0,0.06,0,0,0],[0,0.13,0,0,0],[0,0.19,0,0,0],[0,0.25,0,0,0],[0,0.31,0,0,0],[0,0.38,0,0,0],[0,0.44,0,0,0],[0,0.5,0,0,0],[0,0.56,0,0,0],[0,0.63,0,0,0],[0,0.69,0,0,0],[0,0.75,0,0,0],[0,0.81,0,0,0],[0,0.88,0,0,0],[0,0.94,0,0,0],[0,1,0,0,0],[0.06,0,0,0,0],[0.06,1,0,0,0],[0.13,0,0,0,0],[0.13,1,0,0,0],[0.19,0,0,0,0],[0.19,1,0,0,0],[0.25,0,0,0,0],[0.25,1,0,0,0],[0.31,0,0,0,0],[0.31,1,0,0,0],[0.38,0,0,0,0],[0.38,1,0,0,0],[0.44,0,0,0,0],[0.44,1,0,0,0],[0.5,0,0,0,0],[0.5,1,0,0,0],[0.56,0,0,0,0],[0.56,1,0,0,0],[0.63,0,0,0,0],[0.63,1,0,0,0],[0.69,0,0,0,0],[0.69,1,0,0,0],[0.75,0,0,0,0],[0.75,1,0,0,0],[0.81,0,0,0,0],[0.81,1,0,0,0],[0.88,0,0,0,0],[0.88,1,0,0,0],[0.94,0,0,0,0],[0.94,1,0,0,0],[1,0,0,0,0],[1,0.06,0,0,0],[1,0.13,0,0,0],[1,0.19,0,0,0],[1,0.25,0,0,0],[1,0.31,0,0,0],[1,0.38,0,0,0],[1,0.44,0,0,0],[1,0.5,0,0,0],[1,0.56,0,0,0],[1,0.63,0,0,0],[1,0.69,0,0,0],[1,0.75,0,0,0],[1,0.81,0,0,0],[1,0.88,0,0,0],[1,0.94,0,0,0],[1,1,0,0,0]];strokeColor=#006EAF;labelBackgroundColor=none;" parent="1" vertex="1">
          <mxGeometry x="120" y="620" width="240" height="120" as="geometry">
            <mxRectangle x="640" y="180" width="150" height="70" as="alternateBounds" />
          </mxGeometry>
        </mxCell>
        <mxCell id="jmfpwNvJTStH2VVPo99P-52" value="&lt;font color=&quot;#00cc00&quot;&gt;enter&lt;/font&gt;&amp;nbsp;/&amp;nbsp;e.alarm.setForEvade();&lt;br&gt;&lt;font color=&quot;#00cc00&quot;&gt;enter&lt;/font&gt;&amp;nbsp;/&amp;nbsp;e.alarm.enter();&lt;br&gt;&lt;div&gt;&lt;font color=&quot;#007fff&quot;&gt;do&lt;/font&gt;&amp;nbsp;/ e.alarm.do();&lt;/div&gt;&lt;div&gt;&lt;font color=&quot;#cc0000&quot;&gt;exit&lt;/font&gt;&amp;nbsp;/ e.alarm.exit();&lt;/div&gt;&lt;div&gt;&lt;br&gt;&lt;/div&gt;" style="fontFamily=Lucida Console;align=left;verticalAlign=top;fillColor=none;gradientColor=none;strokeColor=none;rounded=0;spacingLeft=4;resizable=0;movable=0;deletable=0;rotatable=0;autosize=1;html=1;fontSize=12;fontColor=default;labelBackgroundColor=default;" parent="jmfpwNvJTStH2VVPo99P-51" vertex="1" connectable="0">
          <mxGeometry y="30" width="240" height="90" as="geometry" />
        </mxCell>
        <mxCell id="jmfpwNvJTStH2VVPo99P-53" value="ignore our own alarm&lt;div&gt;&lt;/div&gt;" style="shape=note;strokeWidth=2;fontSize=14;size=11;whiteSpace=wrap;html=1;fillColor=#fff2cc;strokeColor=#d6b656;fontColor=#303000;align=left;spacingLeft=5;verticalAlign=middle;fontFamily=Helvetica;" parent="1" vertex="1">
          <mxGeometry x="130" y="760" width="190" height="36.25" as="geometry" />
        </mxCell>
        <mxCell id="jmfpwNvJTStH2VVPo99P-55" value="[e.alarm.isDone()]" style="edgeStyle=none;html=0;exitX=1;exitY=0.56;exitDx=0;exitDy=0;exitPerimeter=0;fontFamily=Lucida Console;fontSize=12;entryX=0;entryY=1;entryDx=0;entryDy=0;entryPerimeter=0;" parent="1" source="jmfpwNvJTStH2VVPo99P-51" target="Q9ECF8ZZ4cc2KDeR4uCh-3" edge="1">
          <mxGeometry relative="1" as="geometry">
            <mxPoint x="370" y="749.8153846153846" as="targetPoint" />
          </mxGeometry>
        </mxCell>
      </root>
    </mxGraphModel>
  </diagram>
  <diagram id="e6KzhQqeHZ0kGev2914D" name="config">
    <mxGraphModel dx="1454" dy="571" grid="1" gridSize="10" guides="1" tooltips="1" connect="1" arrows="1" fold="1" page="1" pageScale="1" pageWidth="1600" pageHeight="900" math="0" shadow="0">
      <root>
        <mxCell id="0" />
        <mxCell id="1" parent="0" />
        <mxCell id="AQYHgrLb52N4u3SG62Hm-1" value="$CONFIG : toml" style="shape=swimlane;rotatable=0;align=center;verticalAlign=top;fontFamily=Lucida Console;startSize=30;fontSize=14;fontStyle=1;swimlaneFillColor=default;rounded=1;arcSize=15;absoluteArcSize=1;fillColor=#76608a;strokeColor=#432D57;fontColor=#ffffff;" parent="1" vertex="1">
          <mxGeometry x="40" y="125" width="760" height="675" as="geometry">
            <mxRectangle x="40" y="40" width="170" height="70" as="alternateBounds" />
          </mxGeometry>
        </mxCell>
        <mxCell id="AQYHgrLb52N4u3SG62Hm-2" value="[RenderConfig]&#xa;AutoExpandedVars = &quot;&quot;&quot;&#xa;    timer: new Timer(0),&#xa;    /** @type{Enemy3|null} */&#xa;    e: null, // need to set this to instance of Enemy before calling start()&#xa;    &quot;&quot;&quot;&#xa;&#xa;[SmRunnerSettings]&#xa;transpilerId = &quot;JavaScript&quot;" style="fontFamily=Lucida Console;align=left;verticalAlign=top;fillColor=none;gradientColor=none;strokeColor=none;rounded=0;spacingLeft=4;resizable=0;movable=0;deletable=0;rotatable=0;autosize=1;" parent="AQYHgrLb52N4u3SG62Hm-1" vertex="1" connectable="0">
          <mxGeometry y="30" width="580" height="140" as="geometry" />
        </mxCell>
        <mxCell id="Rtzr6oL3nyDmr5cCv5HC-1" value="&lt;span style=&quot;color: rgb(0, 0, 0); font-size: 12px;&quot;&gt;Feel free to delete the `$CONFIG : toml` node if you don&#39;t want it.&lt;/span&gt;&lt;br style=&quot;color: rgb(0, 0, 0); font-size: 12px;&quot;&gt;&lt;span style=&quot;color: rgb(0, 0, 0); font-size: 12px;&quot;&gt;Details here:&amp;nbsp;&lt;/span&gt;&lt;a style=&quot;font-size: 12px;&quot; href=&quot;https://github.com/StateSmith/StateSmith/issues/335&quot;&gt;https://github.com/StateSmith/StateSmith/issues/335&lt;/a&gt;" style="shape=note;strokeWidth=2;fontSize=14;size=20;whiteSpace=wrap;html=1;fillColor=#fff2cc;strokeColor=#d6b656;fontColor=#2B2B00;align=left;spacingLeft=6;" parent="1" vertex="1">
          <mxGeometry x="40" y="40" width="490" height="50" as="geometry" />
        </mxCell>
      </root>
    </mxGraphModel>
  </diagram>
  <diagram id="lSXSN223U8W1Hh3X7HAb" name="$notes shapes &amp; tips">
    <mxGraphModel dx="1454" dy="1371" grid="1" gridSize="10" guides="1" tooltips="1" connect="1" arrows="1" fold="1" page="0" pageScale="1" pageWidth="1600" pageHeight="900" math="0" shadow="0">
      <root>
        <mxCell id="0" />
        <mxCell id="1" parent="0" />
        <mxCell id="KJdLhRzIpItSepWCNUQ3-1" value="$initial_state" style="shape=ellipse;aspect=fixed;fillColor=#000000;resizable=1;rotatable=1;noLabel=1;editable=1;movable=1;deletable=1;locked=0;connectable=1;" parent="1" vertex="1">
          <mxGeometry x="40" y="760" width="25" height="25" as="geometry" />
        </mxCell>
        <mxCell id="KJdLhRzIpItSepWCNUQ3-2" value="exit : 1" style="fontFamily=Lucida Console;align=center;verticalAlign=middle;shape=ellipse;aspect=fixed;resizable=0;rotatable=0;labelPosition=center;verticalLabelPosition=top;strokeColor=#b11f1f;strokeWidth=4;fillColor=#FFFFFF;gradientColor=#d4d4d4cc;" parent="1" vertex="1">
          <mxGeometry x="297.5" y="785" width="30" height="30" as="geometry" />
        </mxCell>
        <mxCell id="KJdLhRzIpItSepWCNUQ3-3" value="entry : 1" style="fontFamily=Lucida Console;align=center;verticalAlign=middle;shape=ellipse;aspect=fixed;resizable=0;rotatable=0;labelPosition=center;verticalLabelPosition=top;strokeColor=#27ae27;strokeWidth=4;fillColor=#FFFFFF;gradientColor=#d4d4d4cc;" parent="1" vertex="1">
          <mxGeometry x="222.5" y="785" width="30" height="30" as="geometry" />
        </mxCell>
        <mxCell id="KJdLhRzIpItSepWCNUQ3-4" value="$choice" style="fontFamily=Lucida Console;align=center;verticalAlign=middle;shape=rhombus;rotatable=0;labelPosition=center;verticalLabelPosition=top;strokeWidth=1;fillColor=#FFFFFF;gradientColor=#d4d4d4cc;noLabel=1;points=[[0,0.5,0,0,0],[0.25,0.25,0,0,0],[0.25,0.78,0,0,0],[0.5,0,0,0,0],[0.5,1,0,0,0],[0.75,0.78,0,0,0],[0.8,0.25,0,0,0],[1,0.5,0,0,0]];" parent="1" vertex="1">
          <mxGeometry x="465" y="775" width="40" height="40" as="geometry" />
        </mxCell>
        <mxCell id="KJdLhRzIpItSepWCNUQ3-6" value="&lt;font color=&quot;#bd890f&quot;&gt;$&lt;/font&gt;H" style="fontFamily=Helvetica;align=center;verticalAlign=middle;shape=ellipse;aspect=fixed;resizable=1;rotatable=1;editable=1;labelPosition=center;verticalLabelPosition=middle;strokeColor=#d79b00;strokeWidth=1;fillColor=#ffcd28;gradientColor=#ffa500;gradientDirection=north;html=1;fontColor=#000000;fontStyle=1;movable=1;deletable=1;locked=0;connectable=1;" parent="1" vertex="1">
          <mxGeometry x="785" y="760" width="30" height="30" as="geometry" />
        </mxCell>
        <mxCell id="KJdLhRzIpItSepWCNUQ3-7" value="&lt;font color=&quot;#bd890f&quot;&gt;$&lt;/font&gt;HC" style="fontFamily=Helvetica;align=center;verticalAlign=middle;shape=ellipse;aspect=fixed;resizable=1;rotatable=1;editable=1;labelPosition=center;verticalLabelPosition=middle;strokeColor=#d79b00;strokeWidth=1;fillColor=#ffcd28;gradientColor=#ffa500;gradientDirection=north;html=1;fontColor=#000000;fontStyle=1;movable=1;deletable=1;locked=0;connectable=1;" parent="1" vertex="1">
          <mxGeometry x="970" y="760" width="30" height="30" as="geometry" />
        </mxCell>
        <mxCell id="KJdLhRzIpItSepWCNUQ3-8" value="pseudo states" style="text;align=left;verticalAlign=middle;resizable=0;points=[];autosize=1;strokeColor=none;fillColor=none;fontSize=27;fontStyle=1" parent="1" vertex="1">
          <mxGeometry x="10" y="630" width="190" height="50" as="geometry" />
        </mxCell>
        <mxCell id="KJdLhRzIpItSepWCNUQ3-9" value="above shape has&lt;br&gt;a hidden label" style="text;html=1;align=left;verticalAlign=middle;resizable=0;points=[];autosize=1;strokeColor=none;fillColor=none;fontSize=12;fontFamily=Helvetica;fontStyle=2;fontColor=#858585;" parent="1" vertex="1">
          <mxGeometry x="430" y="820" width="110" height="40" as="geometry" />
        </mxCell>
        <mxCell id="KJdLhRzIpItSepWCNUQ3-10" value="above shape has&lt;br&gt;a hidden label" style="text;html=1;align=left;verticalAlign=middle;resizable=0;points=[];autosize=1;strokeColor=none;fillColor=none;fontSize=12;fontFamily=Helvetica;fontStyle=2;fontColor=#858585;" parent="1" vertex="1">
          <mxGeometry x="10" y="790" width="110" height="40" as="geometry" />
        </mxCell>
        <mxCell id="KJdLhRzIpItSepWCNUQ3-11" value="initial state" style="text;align=left;verticalAlign=middle;resizable=0;points=[];autosize=1;strokeColor=none;fillColor=none;fontSize=18;fontStyle=1" parent="1" vertex="1">
          <mxGeometry x="10" y="705" width="110" height="40" as="geometry" />
        </mxCell>
        <mxCell id="KJdLhRzIpItSepWCNUQ3-12" value="entry exit points" style="text;align=left;verticalAlign=middle;resizable=0;points=[];autosize=1;strokeColor=none;fillColor=none;fontSize=18;fontStyle=1" parent="1" vertex="1">
          <mxGeometry x="200" y="705" width="150" height="40" as="geometry" />
        </mxCell>
        <mxCell id="KJdLhRzIpItSepWCNUQ3-13" value="choice points" style="text;align=left;verticalAlign=middle;resizable=0;points=[];autosize=1;strokeColor=none;fillColor=none;fontSize=18;fontStyle=1" parent="1" vertex="1">
          <mxGeometry x="430" y="705" width="130" height="40" as="geometry" />
        </mxCell>
        <mxCell id="KJdLhRzIpItSepWCNUQ3-14" value="you can give a choice&lt;div&gt;point a label&lt;/div&gt;" style="text;html=1;align=left;verticalAlign=middle;resizable=0;points=[];autosize=1;strokeColor=none;fillColor=none;fontSize=12;fontFamily=Helvetica;fontStyle=2;fontColor=#858585;" parent="1" vertex="1">
          <mxGeometry x="560" y="820" width="140" height="40" as="geometry" />
        </mxCell>
        <mxCell id="KJdLhRzIpItSepWCNUQ3-15" value="history" style="text;align=left;verticalAlign=middle;resizable=0;points=[];autosize=1;strokeColor=none;fillColor=none;fontSize=18;fontStyle=1" parent="1" vertex="1">
          <mxGeometry x="760" y="705" width="80" height="40" as="geometry" />
        </mxCell>
        <mxCell id="KJdLhRzIpItSepWCNUQ3-16" value="history continue" style="text;align=left;verticalAlign=middle;resizable=0;points=[];autosize=1;strokeColor=none;fillColor=none;fontSize=18;fontStyle=1" parent="1" vertex="1">
          <mxGeometry x="910" y="705" width="150" height="40" as="geometry" />
        </mxCell>
        <mxCell id="KJdLhRzIpItSepWCNUQ3-17" value="&lt;b&gt;$NOTES&lt;/b&gt;&lt;br&gt;Original style notes" style="shape=rectangle;rounded=1;arcSize=15;absoluteArcSize=1;align=left;verticalAlign=top;whiteSpace=wrap;html=1;spacingLeft=4;strokeWidth=1;strokeColor=default;fillColor=#fff2cc;fontColor=#000000;gradientColor=#ffd966;" parent="1" vertex="1">
          <mxGeometry x="490" y="1275" width="250" height="70" as="geometry" />
        </mxCell>
        <mxCell id="KJdLhRzIpItSepWCNUQ3-18" value="notes" style="text;align=left;verticalAlign=middle;resizable=0;points=[];autosize=1;strokeColor=none;fillColor=none;fontSize=27;fontStyle=1;fontFamily=Helvetica;fontColor=default;" parent="1" vertex="1">
          <mxGeometry x="22.5" y="1195" width="70" height="40" as="geometry" />
        </mxCell>
        <mxCell id="KJdLhRzIpItSepWCNUQ3-19" value="$NOTES" style="shape=swimlane;rotatable=0;align=center;verticalAlign=top;fontFamily=Helvetica;startSize=30;fontSize=14;fontStyle=1;fontColor=#000000;fillColor=#f0a30a;swimlaneFillColor=default;rounded=1;arcSize=15;absoluteArcSize=1;strokeColor=#BD7000;" parent="1" vertex="1">
          <mxGeometry x="840" y="1255" width="530" height="230" as="geometry" />
        </mxCell>
        <mxCell id="KJdLhRzIpItSepWCNUQ3-20" value="You can put text in here, but you can also put state machine vertices &#xa;in here as a quick way to &quot;comment them out&quot;.&#xa;&#xa;This notes group can be collapsed to hide its contents." style="fontFamily=Lucida Console;align=left;verticalAlign=top;fillColor=none;gradientColor=none;strokeColor=none;rounded=0;spacingLeft=4;resizable=0;movable=0;deletable=0;rotatable=0;autosize=1;" parent="KJdLhRzIpItSepWCNUQ3-19" vertex="1" connectable="0">
          <mxGeometry y="30" width="530" height="70" as="geometry" />
        </mxCell>
        <mxCell id="KJdLhRzIpItSepWCNUQ3-30" style="edgeStyle=orthogonalEdgeStyle;rounded=0;orthogonalLoop=1;jettySize=auto;html=1;exitX=1;exitY=0.25;exitDx=0;exitDy=0;entryX=0;entryY=0.25;entryDx=0;entryDy=0;" parent="KJdLhRzIpItSepWCNUQ3-19" source="KJdLhRzIpItSepWCNUQ3-24" target="KJdLhRzIpItSepWCNUQ3-28" edge="1">
          <mxGeometry relative="1" as="geometry" />
        </mxCell>
        <mxCell id="KJdLhRzIpItSepWCNUQ3-24" value="STATE_1" style="shape=swimlane;rotatable=0;align=center;verticalAlign=top;fontFamily=Lucida Console;startSize=30;fontSize=14;fontStyle=1;fontColor=#FAFAFA;fillColor=#545454;swimlaneFillColor=default;rounded=1;arcSize=15;absoluteArcSize=1;comic=0;STATESMITH_NOTES_VERTEX" parent="KJdLhRzIpItSepWCNUQ3-19" vertex="1">
          <mxGeometry x="30" y="110" width="120" height="90" as="geometry" />
        </mxCell>
        <mxCell id="KJdLhRzIpItSepWCNUQ3-25" value="" style="fontFamily=Lucida Console;align=left;verticalAlign=top;fillColor=none;gradientColor=none;strokeColor=none;rounded=0;spacingLeft=4;resizable=0;movable=0;deletable=0;rotatable=0;autosize=1;comic=0;" parent="KJdLhRzIpItSepWCNUQ3-24" vertex="1" connectable="0">
          <mxGeometry y="30" width="50" height="40" as="geometry" />
        </mxCell>
        <mxCell id="KJdLhRzIpItSepWCNUQ3-31" style="edgeStyle=orthogonalEdgeStyle;rounded=0;orthogonalLoop=1;jettySize=auto;html=1;exitX=0;exitY=0.75;exitDx=0;exitDy=0;entryX=1;entryY=0.75;entryDx=0;entryDy=0;" parent="KJdLhRzIpItSepWCNUQ3-19" source="KJdLhRzIpItSepWCNUQ3-28" target="KJdLhRzIpItSepWCNUQ3-24" edge="1">
          <mxGeometry relative="1" as="geometry" />
        </mxCell>
        <mxCell id="KJdLhRzIpItSepWCNUQ3-28" value="STATE_1" style="shape=swimlane;rotatable=0;align=center;verticalAlign=top;fontFamily=Lucida Console;startSize=30;fontSize=14;fontStyle=1;fontColor=#FAFAFA;fillColor=#545454;swimlaneFillColor=default;rounded=1;arcSize=15;absoluteArcSize=1;comic=0;STATESMITH_NOTES_VERTEX" parent="KJdLhRzIpItSepWCNUQ3-19" vertex="1">
          <mxGeometry x="300" y="110" width="120" height="90" as="geometry" />
        </mxCell>
        <mxCell id="KJdLhRzIpItSepWCNUQ3-29" value="" style="fontFamily=Lucida Console;align=left;verticalAlign=top;fillColor=none;gradientColor=none;strokeColor=none;rounded=0;spacingLeft=4;resizable=0;movable=0;deletable=0;rotatable=0;autosize=1;comic=0;" parent="KJdLhRzIpItSepWCNUQ3-28" vertex="1" connectable="0">
          <mxGeometry y="30" width="50" height="40" as="geometry" />
        </mxCell>
        <mxCell id="KJdLhRzIpItSepWCNUQ3-21" value="a big sticky note" style="strokeWidth=1;shadow=0;dashed=0;align=left;html=1;shape=mxgraph.mockup.text.stickyNote2;fontColor=#666666;mainText=;fontSize=17;whiteSpace=wrap;fillColor=#ffffcc;strokeColor=#F62E00;spacingLeft=9;" parent="1" vertex="1">
          <mxGeometry x="285" y="1265" width="165" height="120" as="geometry" />
        </mxCell>
        <mxCell id="KJdLhRzIpItSepWCNUQ3-22" value="some notes and stuff..." style="shape=note;strokeWidth=2;fontSize=14;size=20;whiteSpace=wrap;html=1;fillColor=#fff2cc;strokeColor=#d6b656;fontColor=#303000;align=left;spacingLeft=5;" parent="1" vertex="1">
          <mxGeometry x="22.5" y="1275" width="217.5" height="40" as="geometry" />
        </mxCell>
        <mxCell id="KJdLhRzIpItSepWCNUQ3-26" value="another note style" style="shape=note2;boundedLbl=1;whiteSpace=wrap;html=1;size=25;verticalAlign=top;align=center;" parent="1" vertex="1">
          <mxGeometry x="22.5" y="1345" width="120" height="60" as="geometry" />
        </mxCell>
        <mxCell id="KJdLhRzIpItSepWCNUQ3-27" value="you can style however you want" style="shape=note;strokeWidth=2;fontSize=14;size=20;whiteSpace=wrap;html=1;fillColor=#a20025;strokeColor=#6F0000;fontColor=#ffffff;align=left;spacingLeft=5;" parent="1" vertex="1">
          <mxGeometry x="22.5" y="1445" width="257.5" height="40" as="geometry" />
        </mxCell>
        <mxCell id="KJdLhRzIpItSepWCNUQ3-32" value="" style="endArrow=none;html=1;rounded=0;" parent="1" edge="1">
          <mxGeometry width="50" height="50" relative="1" as="geometry">
            <mxPoint y="1245" as="sourcePoint" />
            <mxPoint x="1440" y="1245" as="targetPoint" />
          </mxGeometry>
        </mxCell>
        <mxCell id="KJdLhRzIpItSepWCNUQ3-33" value="" style="endArrow=none;html=1;rounded=0;" parent="1" edge="1">
          <mxGeometry width="50" height="50" relative="1" as="geometry">
            <mxPoint y="680" as="sourcePoint" />
            <mxPoint x="1440" y="680" as="targetPoint" />
          </mxGeometry>
        </mxCell>
        <mxCell id="KJdLhRzIpItSepWCNUQ3-34" value="This page name is important. It starts with $notes so that it will be totally&amp;nbsp;&lt;div&gt;ignored by code generation&lt;/div&gt;" style="shape=note;strokeWidth=2;fontSize=14;size=20;whiteSpace=wrap;html=1;fillColor=#d80073;strokeColor=#A50040;fontColor=#ffffff;align=left;spacingLeft=5;" parent="1" vertex="1">
          <mxGeometry x="5" y="-550" width="500" height="40" as="geometry" />
        </mxCell>
        <mxCell id="KJdLhRzIpItSepWCNUQ3-35" value="$CONFIG : toml" style="shape=swimlane;rotatable=0;align=center;verticalAlign=top;fontFamily=Lucida Console;startSize=30;fontSize=14;fontStyle=1;swimlaneFillColor=default;html=1;rounded=1;arcSize=15;absoluteArcSize=1;fillColor=#76608a;strokeColor=#432D57;fontColor=#ffffff;" parent="1" vertex="1" collapsed="1">
          <mxGeometry x="20" y="1020" width="170" height="70" as="geometry">
            <mxRectangle width="840" height="650" as="alternateBounds" />
          </mxGeometry>
        </mxCell>
        <mxCell id="KJdLhRzIpItSepWCNUQ3-36" value="[RenderConfig]&#xa;FileTop = &quot;&quot;&quot;&#xa;    // Whatever you put in this `FileTop` section will end up &#xa;    // being printed at the top of every generated code file.&#xa;    &quot;&quot;&quot;&#xa;AutoExpandedVars = &quot;&quot;&quot;&#xa;    count: 0, // this var can be referenced in diagram&#xa;    &quot;&quot;&quot;&#xa;&#xa;[RenderConfig.JavaScript]&#xa;# ExtendsSuperClass = &quot;MyUserBaseClass&quot;&#xa;# UseExportOnClass = true&#xa;&#xa;[SmRunnerSettings]&#xa;transpilerId = &quot;JavaScript&quot;" style="fontFamily=Lucida Console;align=left;verticalAlign=top;fillColor=none;gradientColor=none;strokeColor=none;rounded=0;spacingLeft=4;resizable=0;movable=0;deletable=0;rotatable=0;autosize=1;" parent="KJdLhRzIpItSepWCNUQ3-35" vertex="1" connectable="0">
          <mxGeometry y="30" width="130" height="30" as="geometry" />
        </mxCell>
        <mxCell id="4-2zxK3wcSJ80wd-ZBZ5-2" value="&lt;span style=&quot;color: rgb(0, 0, 0); font-size: 12px;&quot;&gt;Feel free to delete the `$CONFIG : toml` node. It isn&#39;t required.&lt;/span&gt;&lt;br style=&quot;color: rgb(0, 0, 0); font-size: 12px;&quot;&gt;&lt;br style=&quot;color: rgb(0, 0, 0); font-size: 12px;&quot;&gt;&lt;span style=&quot;color: rgb(0, 0, 0); font-size: 12px;&quot;&gt;Details here:&amp;nbsp;&lt;/span&gt;&lt;a style=&quot;font-size: 12px;&quot; href=&quot;https://github.com/StateSmith/StateSmith/issues/335&quot;&gt;https://github.com/StateSmith/StateSmith/issues/335&lt;/a&gt;" style="shape=note;strokeWidth=2;fontSize=14;size=20;whiteSpace=wrap;html=1;fillColor=#fff2cc;strokeColor=#d6b656;fontColor=#303000;align=left;spacingLeft=5;" parent="KJdLhRzIpItSepWCNUQ3-35" vertex="1">
          <mxGeometry x="10" y="-60" width="380" height="60" as="geometry" />
        </mxCell>
        <mxCell id="KJdLhRzIpItSepWCNUQ3-38" value="config" style="text;align=left;verticalAlign=middle;resizable=0;points=[];autosize=1;strokeColor=none;fillColor=none;fontSize=27;fontStyle=1;fontFamily=Helvetica;fontColor=default;" parent="1" vertex="1">
          <mxGeometry x="22.5" y="945" width="100" height="50" as="geometry" />
        </mxCell>
        <mxCell id="KJdLhRzIpItSepWCNUQ3-39" value="" style="endArrow=none;html=1;rounded=0;" parent="1" edge="1">
          <mxGeometry width="50" height="50" relative="1" as="geometry">
            <mxPoint y="1000" as="sourcePoint" />
            <mxPoint x="1440" y="1000" as="targetPoint" />
          </mxGeometry>
        </mxCell>
        <mxCell id="KJdLhRzIpItSepWCNUQ3-40" value="$STATEMACHINE : MySm" style="shape=swimlane;rotatable=0;align=center;verticalAlign=top;fontFamily=Lucida Console;startSize=30;fontSize=14;fontStyle=1;fontColor=#FAFAFA;fillColor=#545454;swimlaneFillColor=default;rounded=1;arcSize=15;absoluteArcSize=1;" parent="1" vertex="1">
          <mxGeometry x="690" y="-20" width="360" height="220" as="geometry" />
        </mxCell>
        <mxCell id="KJdLhRzIpItSepWCNUQ3-41" value=" " style="fontFamily=Lucida Console;align=left;verticalAlign=top;fillColor=none;gradientColor=none;strokeColor=none;rounded=0;spacingLeft=4;resizable=0;movable=0;deletable=0;rotatable=0;autosize=1;" parent="KJdLhRzIpItSepWCNUQ3-40" vertex="1" connectable="0">
          <mxGeometry y="30" width="30" height="20" as="geometry" />
        </mxCell>
        <mxCell id="KJdLhRzIpItSepWCNUQ3-42" value="$initial_state" style="shape=ellipse;aspect=fixed;fillColor=#000000;resizable=1;rotatable=1;noLabel=1;editable=1;movable=1;deletable=1;locked=0;connectable=1;" parent="KJdLhRzIpItSepWCNUQ3-40" vertex="1">
          <mxGeometry x="67.5" y="50" width="25" height="25" as="geometry" />
        </mxCell>
        <mxCell id="KJdLhRzIpItSepWCNUQ3-43" value="STATE_1" style="shape=swimlane;rotatable=0;align=center;verticalAlign=top;fontFamily=Lucida Console;startSize=30;fontSize=14;fontStyle=1;fontColor=#FAFAFA;fillColor=#545454;swimlaneFillColor=default;rounded=1;arcSize=15;absoluteArcSize=1;" parent="KJdLhRzIpItSepWCNUQ3-40" vertex="1">
          <mxGeometry x="20" y="110" width="120" height="90" as="geometry" />
        </mxCell>
        <mxCell id="KJdLhRzIpItSepWCNUQ3-44" value="enter / {  }&#xa;do / {  }&#xa;exit / {  }" style="fontFamily=Lucida Console;align=left;verticalAlign=top;fillColor=none;gradientColor=none;strokeColor=none;rounded=0;spacingLeft=4;resizable=0;movable=0;deletable=0;rotatable=0;autosize=1;" parent="KJdLhRzIpItSepWCNUQ3-43" vertex="1" connectable="0">
          <mxGeometry y="30" width="100" height="50" as="geometry" />
        </mxCell>
        <mxCell id="KJdLhRzIpItSepWCNUQ3-45" value="STATE_2" style="shape=swimlane;rotatable=0;align=center;verticalAlign=top;fontFamily=Lucida Console;startSize=30;fontSize=14;fontStyle=1;fontColor=#FAFAFA;fillColor=#545454;swimlaneFillColor=default;rounded=1;arcSize=15;absoluteArcSize=1;" parent="KJdLhRzIpItSepWCNUQ3-40" vertex="1">
          <mxGeometry x="220" y="110" width="120" height="90" as="geometry" />
        </mxCell>
        <mxCell id="KJdLhRzIpItSepWCNUQ3-46" value="enter / {  }&#xa;do / {  }&#xa;exit / {  }" style="fontFamily=Lucida Console;align=left;verticalAlign=top;fillColor=none;gradientColor=none;strokeColor=none;rounded=0;spacingLeft=4;resizable=0;movable=0;deletable=0;rotatable=0;autosize=1;" parent="KJdLhRzIpItSepWCNUQ3-45" vertex="1" connectable="0">
          <mxGeometry y="30" width="100" height="50" as="geometry" />
        </mxCell>
        <mxCell id="KJdLhRzIpItSepWCNUQ3-47" style="rounded=0;" parent="KJdLhRzIpItSepWCNUQ3-40" source="KJdLhRzIpItSepWCNUQ3-42" target="KJdLhRzIpItSepWCNUQ3-43" edge="1">
          <mxGeometry relative="1" as="geometry" />
        </mxCell>
        <mxCell id="KJdLhRzIpItSepWCNUQ3-48" style="rounded=0;" parent="KJdLhRzIpItSepWCNUQ3-40" source="KJdLhRzIpItSepWCNUQ3-43" target="KJdLhRzIpItSepWCNUQ3-45" edge="1">
          <mxGeometry relative="1" as="geometry" />
        </mxCell>
        <mxCell id="KJdLhRzIpItSepWCNUQ3-49" value="Old style state machine that has all children nested.&lt;div&gt;Useful if you want to declare multiple state machines in a single diagram (only supported by .csx files currently).&lt;/div&gt;" style="shape=note;strokeWidth=2;fontSize=14;size=20;whiteSpace=wrap;html=1;fillColor=#fff2cc;strokeColor=#d6b656;fontColor=#303000;align=left;spacingLeft=5;" parent="1" vertex="1">
          <mxGeometry x="692.5" y="-90" width="387.5" height="50" as="geometry" />
        </mxCell>
        <mxCell id="KJdLhRzIpItSepWCNUQ3-51" value="&lt;div&gt;New &quot;not nested&quot; state machine declaration. You can only&amp;nbsp; have a single one of these in a draw.io file&lt;/div&gt;https://github.com/StateSmith/StateSmith/issues/359" style="shape=note;strokeWidth=2;fontSize=14;size=20;whiteSpace=wrap;html=1;fillColor=#fff2cc;strokeColor=#d6b656;fontColor=#303000;align=left;spacingLeft=5;verticalAlign=middle;fontFamily=Helvetica;" parent="1" vertex="1">
          <mxGeometry x="5" y="-90" width="475" height="56.25" as="geometry" />
        </mxCell>
        <mxCell id="THOiIpDGZ02Zs2kVVUPI-2" value="state machine declarations" style="text;align=left;verticalAlign=middle;resizable=0;points=[];autosize=1;strokeColor=none;fillColor=none;fontSize=27;fontStyle=1" parent="1" vertex="1">
          <mxGeometry x="10" y="-160" width="340" height="50" as="geometry" />
        </mxCell>
        <mxCell id="THOiIpDGZ02Zs2kVVUPI-3" value="" style="endArrow=none;html=1;rounded=0;" parent="1" edge="1">
          <mxGeometry width="50" height="50" relative="1" as="geometry">
            <mxPoint y="-110" as="sourcePoint" />
            <mxPoint x="1440" y="-110" as="targetPoint" />
          </mxGeometry>
        </mxCell>
        <mxCell id="THOiIpDGZ02Zs2kVVUPI-4" value="states" style="text;align=left;verticalAlign=middle;resizable=0;points=[];autosize=1;strokeColor=none;fillColor=none;fontSize=27;fontStyle=1" parent="1" vertex="1">
          <mxGeometry x="10" y="250" width="100" height="50" as="geometry" />
        </mxCell>
        <mxCell id="THOiIpDGZ02Zs2kVVUPI-5" value="" style="endArrow=none;html=1;rounded=0;" parent="1" edge="1">
          <mxGeometry width="50" height="50" relative="1" as="geometry">
            <mxPoint y="300" as="sourcePoint" />
            <mxPoint x="1440" y="300" as="targetPoint" />
          </mxGeometry>
        </mxCell>
        <mxCell id="THOiIpDGZ02Zs2kVVUPI-7" value="STATE_1" style="shape=swimlane;rotatable=0;align=center;verticalAlign=top;fontFamily=Lucida Console;startSize=30;fontSize=14;fontStyle=1;fontColor=#FAFAFA;fillColor=#545454;swimlaneFillColor=default;rounded=1;arcSize=15;absoluteArcSize=1;" parent="1" vertex="1">
          <mxGeometry x="240" y="420" width="120" height="90" as="geometry" />
        </mxCell>
        <mxCell id="THOiIpDGZ02Zs2kVVUPI-8" value="enter / {  }&#xa;do / {  }&#xa;exit / {  }" style="fontFamily=Lucida Console;align=left;verticalAlign=top;fillColor=none;gradientColor=none;strokeColor=none;rounded=0;spacingLeft=4;resizable=0;movable=0;deletable=0;rotatable=0;autosize=1;" parent="THOiIpDGZ02Zs2kVVUPI-7" vertex="1" connectable="0">
          <mxGeometry y="30" width="100" height="50" as="geometry" />
        </mxCell>
        <mxCell id="THOiIpDGZ02Zs2kVVUPI-9" value="STATE_1&lt;div&gt;enter / { }&lt;/div&gt;&lt;div&gt;&lt;span style=&quot;background-color: initial;&quot;&gt;exit / { }&lt;/span&gt;&lt;br&gt;&lt;/div&gt;&lt;div&gt;do / { }&lt;span style=&quot;background-color: initial;&quot;&gt;&lt;br&gt;&lt;/span&gt;&lt;/div&gt;" style="rounded=1;whiteSpace=wrap;html=1;verticalAlign=top;align=left;spacingLeft=2;arcSize=9;" parent="1" vertex="1">
          <mxGeometry x="5" y="420" width="145" height="70" as="geometry" />
        </mxCell>
        <mxCell id="THOiIpDGZ02Zs2kVVUPI-10" value="Plain text based state.&lt;div&gt;&lt;/div&gt;&lt;div&gt;Equivalent to other STATE_1&lt;/div&gt;&lt;div&gt;except that this shape can&#39;t have sub states.&lt;/div&gt;" style="shape=note;strokeWidth=2;fontSize=14;size=12;whiteSpace=wrap;html=1;fillColor=#fff2cc;strokeColor=#d6b656;fontColor=#303000;align=left;spacingLeft=5;verticalAlign=middle;fontFamily=Helvetica;" parent="1" vertex="1">
          <mxGeometry x="5" y="330" width="205" height="70" as="geometry" />
        </mxCell>
        <mxCell id="THOiIpDGZ02Zs2kVVUPI-12" value="State &quot;group&quot; shape that can easily have sub states added to it." style="shape=note;strokeWidth=2;fontSize=14;size=12;whiteSpace=wrap;html=1;fillColor=#fff2cc;strokeColor=#d6b656;fontColor=#303000;align=left;spacingLeft=5;verticalAlign=middle;fontFamily=Helvetica;" parent="1" vertex="1">
          <mxGeometry x="240" y="330" width="245" height="70" as="geometry" />
        </mxCell>
        <mxCell id="THOiIpDGZ02Zs2kVVUPI-13" value="These shapes have more connection points.&amp;nbsp;&lt;div&gt;You can add/edit connection points on any shape. See &lt;a href=&quot;https://github.com/StateSmith/StateSmith-drawio-plugin/wiki/How-to-Use#add-shape-connection-points&quot;&gt;here&lt;/a&gt;.&lt;/div&gt;" style="shape=note;strokeWidth=2;fontSize=14;size=12;whiteSpace=wrap;html=1;fillColor=#fff2cc;strokeColor=#d6b656;fontColor=#303000;align=left;spacingLeft=5;verticalAlign=middle;fontFamily=Helvetica;" parent="1" vertex="1">
          <mxGeometry x="510" y="330" width="550" height="60" as="geometry" />
        </mxCell>
        <mxCell id="THOiIpDGZ02Zs2kVVUPI-14" value="STATE_1" style="shape=swimlane;rotatable=0;align=center;verticalAlign=top;fontFamily=Lucida Console;startSize=30;fontSize=14;fontStyle=1;fontColor=#ffffff;fillColor=#1ba1e2;swimlaneFillColor=default;rounded=1;arcSize=15;absoluteArcSize=1;points=[[0,0,0,0,0],[0,0.06,0,0,0],[0,0.13,0,0,0],[0,0.19,0,0,0],[0,0.25,0,0,0],[0,0.31,0,0,0],[0,0.38,0,0,0],[0,0.44,0,0,0],[0,0.5,0,0,0],[0,0.56,0,0,0],[0,0.63,0,0,0],[0,0.69,0,0,0],[0,0.75,0,0,0],[0,0.81,0,0,0],[0,0.88,0,0,0],[0,0.94,0,0,0],[0,1,0,0,0],[0.06,0,0,0,0],[0.06,1,0,0,0],[0.13,0,0,0,0],[0.13,1,0,0,0],[0.19,0,0,0,0],[0.19,1,0,0,0],[0.25,0,0,0,0],[0.25,1,0,0,0],[0.31,0,0,0,0],[0.31,1,0,0,0],[0.38,0,0,0,0],[0.38,1,0,0,0],[0.44,0,0,0,0],[0.44,1,0,0,0],[0.5,0,0,0,0],[0.5,1,0,0,0],[0.56,0,0,0,0],[0.56,1,0,0,0],[0.63,0,0,0,0],[0.63,1,0,0,0],[0.69,0,0,0,0],[0.69,1,0,0,0],[0.75,0,0,0,0],[0.75,1,0,0,0],[0.81,0,0,0,0],[0.81,1,0,0,0],[0.88,0,0,0,0],[0.88,1,0,0,0],[0.94,0,0,0,0],[0.94,1,0,0,0],[1,0,0,0,0],[1,0.06,0,0,0],[1,0.13,0,0,0],[1,0.19,0,0,0],[1,0.25,0,0,0],[1,0.31,0,0,0],[1,0.38,0,0,0],[1,0.44,0,0,0],[1,0.5,0,0,0],[1,0.56,0,0,0],[1,0.63,0,0,0],[1,0.69,0,0,0],[1,0.75,0,0,0],[1,0.81,0,0,0],[1,0.88,0,0,0],[1,0.94,0,0,0],[1,1,0,0,0]];strokeColor=#006EAF;" parent="1" vertex="1">
          <mxGeometry x="810" y="420" width="250" height="140" as="geometry" />
        </mxCell>
        <mxCell id="THOiIpDGZ02Zs2kVVUPI-15" value="enter / {  }&#xa;do / {  }&#xa;exit / {  }" style="fontFamily=Lucida Console;align=left;verticalAlign=top;fillColor=none;gradientColor=none;strokeColor=none;rounded=0;spacingLeft=4;resizable=0;movable=0;deletable=0;rotatable=0;autosize=1;" parent="THOiIpDGZ02Zs2kVVUPI-14" vertex="1" connectable="0">
          <mxGeometry y="30" width="100" height="50" as="geometry" />
        </mxCell>
        <mxCell id="THOiIpDGZ02Zs2kVVUPI-16" value="$choice : my_label" style="fontFamily=Lucida Console;align=center;verticalAlign=middle;shape=rhombus;rotatable=0;labelPosition=center;verticalLabelPosition=top;strokeWidth=1;fillColor=#FFFFFF;gradientColor=#d4d4d4cc;noLabel=0;points=[[0,0.5,0,0,0],[0.25,0.25,0,0,0],[0.25,0.78,0,0,0],[0.5,0,0,0,0],[0.5,1,0,0,0],[0.75,0.78,0,0,0],[0.8,0.25,0,0,0],[1,0.5,0,0,0]];" parent="1" vertex="1">
          <mxGeometry x="590" y="775" width="40" height="40" as="geometry" />
        </mxCell>
        <mxCell id="KCnc1RyC07B4IOUb-hCN-11" value="Tips" style="text;align=left;verticalAlign=middle;resizable=0;points=[];autosize=1;strokeColor=none;fillColor=none;fontSize=27;fontStyle=1;fontFamily=Helvetica;fontColor=default;" parent="1" vertex="1">
          <mxGeometry x="10" y="-480" width="70" height="50" as="geometry" />
        </mxCell>
        <mxCell id="KCnc1RyC07B4IOUb-hCN-12" value="" style="endArrow=none;html=1;rounded=0;" parent="1" edge="1">
          <mxGeometry width="50" height="50" relative="1" as="geometry">
            <mxPoint x="5" y="-425" as="sourcePoint" />
            <mxPoint x="1445" y="-425" as="targetPoint" />
          </mxGeometry>
        </mxCell>
        <mxCell id="KCnc1RyC07B4IOUb-hCN-13" value="&lt;div&gt;&lt;span style=&quot;&quot;&gt;&lt;b&gt;Main wiki page for draw.io&lt;/b&gt;&lt;/span&gt;&lt;/div&gt;&lt;span style=&quot;&quot;&gt;&lt;a href=&quot;https://github.com/StateSmith/StateSmith/wiki/draw.io&quot;&gt;https://github.com/StateSmith/StateSmith/wiki/draw.io&lt;/a&gt;&lt;/span&gt;&lt;div&gt;&lt;br&gt;&lt;/div&gt;&lt;div&gt;&lt;b&gt;draw.io usage tips&lt;/b&gt;&lt;/div&gt;&lt;div&gt;A few are specific to the StateSmith plugin&lt;/div&gt;&lt;div&gt;&lt;a href=&quot;https://github.com/StateSmith/StateSmith-drawio-plugin/wiki/How-to-Use&quot;&gt;https://github.com/StateSmith/StateSmith-drawio-plugin/wiki/How-to-Use&lt;/a&gt;&lt;br&gt;&lt;/div&gt;&lt;div&gt;&lt;br&gt;&lt;/div&gt;&lt;div&gt;&lt;b&gt;Troubleshooting&lt;/b&gt;&lt;/div&gt;&lt;div&gt;&lt;a href=&quot;https://github.com/StateSmith/StateSmith-drawio-plugin/wiki/Troubleshooting&quot;&gt;https://github.com/StateSmith/StateSmith-drawio-plugin/wiki/Troubleshooting&lt;/a&gt;&lt;br&gt;&lt;/div&gt;" style="text;html=1;align=left;verticalAlign=top;whiteSpace=wrap;rounded=0;" parent="1" vertex="1">
          <mxGeometry x="11.25" y="-402" width="442.5" height="192" as="geometry" />
        </mxCell>
        <mxCell id="JidS1JY-WBmU68CCgZlU-3" value="STATE_1" style="shape=swimlane;rotatable=0;align=center;verticalAlign=top;fontFamily=Lucida Console;startSize=30;fontSize=14;fontStyle=1;fontColor=#ffffff;fillColor=#1ba1e2;swimlaneFillColor=default;rounded=1;arcSize=15;absoluteArcSize=1;points=[[0,0,0,0,0],[0,0.1,0,0,0],[0,0.2,0,0,0],[0,0.3,0,0,0],[0,0.4,0,0,0],[0,0.5,0,0,0],[0,0.6,0,0,0],[0,0.7,0,0,0],[0,0.8,0,0,0],[0,0.9,0,0,0],[0,1,0,0,0],[0.1,0,0,0,0],[0.1,1,0,0,0],[0.2,0,0,0,0],[0.2,1,0,0,0],[0.3,0,0,0,0],[0.3,1,0,0,0],[0.4,0,0,0,0],[0.4,1,0,0,0],[0.5,0,0,0,0],[0.5,1,0,0,0],[0.6,0,0,0,0],[0.6,1,0,0,0],[0.7,0,0,0,0],[0.7,1,0,0,0],[0.8,0,0,0,0],[0.8,1,0,0,0],[0.9,0,0,0,0],[0.9,1,0,0,0],[1,0,0,0,0],[1,0.1,0,0,0],[1,0.2,0,0,0],[1,0.3,0,0,0],[1,0.4,0,0,0],[1,0.5,0,0,0],[1,0.6,0,0,0],[1,0.7,0,0,0],[1,0.8,0,0,0],[1,0.9,0,0,0],[1,1,0,0,0]];strokeColor=#006EAF;" parent="1" vertex="1">
          <mxGeometry x="670" y="420" width="120" height="90" as="geometry" />
        </mxCell>
        <mxCell id="JidS1JY-WBmU68CCgZlU-4" value="enter / {  }&#xa;do / {  }&#xa;exit / {  }" style="fontFamily=Lucida Console;align=left;verticalAlign=top;fillColor=none;gradientColor=none;strokeColor=none;rounded=0;spacingLeft=4;resizable=0;movable=0;deletable=0;rotatable=0;autosize=1;" parent="JidS1JY-WBmU68CCgZlU-3" vertex="1" connectable="0">
          <mxGeometry y="30" width="100" height="50" as="geometry" />
        </mxCell>
        <mxCell id="JidS1JY-WBmU68CCgZlU-5" value="STATE_1" style="shape=swimlane;rotatable=0;align=center;verticalAlign=top;fontFamily=Lucida Console;startSize=30;fontSize=14;fontStyle=1;fontColor=#ffffff;fillColor=#1ba1e2;swimlaneFillColor=default;rounded=1;arcSize=15;absoluteArcSize=1;points=[[0,0,0,0,0],[0,0.13,0,0,0],[0,0.25,0,0,0],[0,0.38,0,0,0],[0,0.5,0,0,0],[0,0.63,0,0,0],[0,0.75,0,0,0],[0,0.88,0,0,0],[0,1,0,0,0],[0.13,0,0,0,0],[0.13,1,0,0,0],[0.25,0,0,0,0],[0.25,1,0,0,0],[0.38,0,0,0,0],[0.38,1,0,0,0],[0.5,0,0,0,0],[0.5,1,0,0,0],[0.63,0,0,0,0],[0.63,1,0,0,0],[0.75,0,0,0,0],[0.75,1,0,0,0],[0.88,0,0,0,0],[0.88,1,0,0,0],[1,0,0,0,0],[1,0.13,0,0,0],[1,0.25,0,0,0],[1,0.38,0,0,0],[1,0.5,0,0,0],[1,0.63,0,0,0],[1,0.75,0,0,0],[1,0.88,0,0,0],[1,1,0,0,0]];strokeColor=#006EAF;" parent="1" vertex="1">
          <mxGeometry x="510" y="420" width="120" height="90" as="geometry" />
        </mxCell>
        <mxCell id="JidS1JY-WBmU68CCgZlU-6" value="enter / {  }&#xa;do / {  }&#xa;exit / {  }" style="fontFamily=Lucida Console;align=left;verticalAlign=top;fillColor=none;gradientColor=none;strokeColor=none;rounded=0;spacingLeft=4;resizable=0;movable=0;deletable=0;rotatable=0;autosize=1;" parent="JidS1JY-WBmU68CCgZlU-5" vertex="1" connectable="0">
          <mxGeometry y="30" width="100" height="50" as="geometry" />
        </mxCell>
        <mxCell id="OrgVsQ4qPEvQc6joGMdC-1" value="&lt;div&gt;&lt;span style=&quot;&quot;&gt;&lt;b&gt;&lt;font style=&quot;font-size: 16px;&quot;&gt;Helpful shortcuts&lt;/font&gt;&lt;/b&gt;&lt;/span&gt;&lt;/div&gt;&lt;div&gt;&lt;ul&gt;&lt;li&gt;&lt;font style=&quot;font-size: 12px;&quot;&gt;go up a pages:&amp;nbsp;&lt;font style=&quot;font-size: 12px;&quot; face=&quot;Lucida Console&quot;&gt;&lt;font style=&quot;font-size: 12px;&quot; color=&quot;#0066cc&quot;&gt;CTRL+SHIFT+PG_UP&lt;/font&gt;&amp;nbsp;&lt;/font&gt;&lt;/font&gt;&lt;/li&gt;&lt;li&gt;&lt;font style=&quot;font-size: 12px;&quot; face=&quot;Lucida Console&quot;&gt;&lt;span style=&quot;font-family: Helvetica;&quot;&gt;go down a page:&lt;/span&gt;&amp;nbsp;&lt;font style=&quot;font-size: 12px;&quot; color=&quot;#0066cc&quot;&gt;CTRL+SHIFT+PG_DOWN&lt;/font&gt;&lt;/font&gt;&lt;/li&gt;&lt;li style=&quot;box-sizing: border-box;&quot;&gt;&lt;font style=&quot;font-size: 12px;&quot;&gt;enter a group:&lt;code style=&quot;box-sizing: border-box; padding: 0.2em 0.4em; margin: 0px; white-space-collapse: break-spaces; background-color: var(--bgColor-neutral-muted, var(--color-neutral-muted)); border-radius: 6px;&quot;&gt;&lt;font style=&quot;font-size: 12px;&quot; color=&quot;#0066cc&quot; face=&quot;Lucida Console&quot;&gt;CTRL+SHIFT+END&lt;/font&gt;&lt;/code&gt;&lt;/font&gt;&lt;/li&gt;&lt;li style=&quot;box-sizing: border-box; margin-top: 0.25em;&quot;&gt;&lt;font style=&quot;font-size: 12px;&quot;&gt;exit a group:&lt;code style=&quot;box-sizing: border-box; padding: 0.2em 0.4em; margin: 0px; white-space-collapse: break-spaces; background-color: var(--bgColor-neutral-muted, var(--color-neutral-muted)); border-radius: 6px;&quot;&gt;&lt;font style=&quot;font-size: 12px;&quot; color=&quot;#0066cc&quot; face=&quot;Lucida Console&quot;&gt;CTRL+SHIFT+HOME&lt;/font&gt;&lt;/code&gt;&lt;/font&gt;&lt;/li&gt;&lt;li style=&quot;box-sizing: border-box; margin-top: 0.25em;&quot;&gt;&lt;font style=&quot;font-size: 12px;&quot;&gt;exit to root:&amp;nbsp;&lt;code style=&quot;box-sizing: border-box; padding: 0.2em 0.4em; margin: 0px; white-space-collapse: break-spaces; background-color: var(--bgColor-neutral-muted, var(--color-neutral-muted)); border-radius: 6px;&quot;&gt;&lt;font style=&quot;font-size: 12px;&quot; color=&quot;#0066cc&quot; face=&quot;Lucida Console&quot;&gt;SHIFT+HOME&lt;/font&gt;&lt;/code&gt;&lt;/font&gt;&lt;/li&gt;&lt;/ul&gt;&lt;/div&gt;&lt;div&gt;&lt;br&gt;&lt;/div&gt;" style="text;html=1;align=left;verticalAlign=top;whiteSpace=wrap;rounded=0;" parent="1" vertex="1">
          <mxGeometry x="470" y="-402" width="530" height="192" as="geometry" />
        </mxCell>
        <mxCell id="inE1e8qNggDrZwxTO7KQ-1" value="&lt;span style=&quot;color: rgb(250, 250, 250); font-family: &amp;quot;Lucida Console&amp;quot;; font-size: 14px; font-weight: 700; text-wrap: nowrap;&quot;&gt;$STATEMACHINE : {fileName}&lt;/span&gt;" style="rounded=1;whiteSpace=wrap;html=1;fillColor=#1ba1e2;fontColor=#ffffff;strokeColor=#006EAF;connectable=0;allowArrows=0;" parent="1" vertex="1">
          <mxGeometry x="5" y="120" width="395" height="35" as="geometry" />
        </mxCell>
        <mxCell id="SZ6MZoNXvt2rsGTTfR6_-1" value="Below (available in 0.12.0+) uses the file name for the state machine name.&amp;nbsp;https://github.com/StateSmith/StateSmith/issues/330&lt;div&gt;&lt;/div&gt;" style="shape=note;strokeWidth=2;fontSize=14;size=20;whiteSpace=wrap;html=1;fillColor=#fff2cc;strokeColor=#d6b656;fontColor=#303000;align=left;spacingLeft=5;verticalAlign=middle;fontFamily=Helvetica;" parent="1" vertex="1">
          <mxGeometry x="5" y="50" width="475" height="56.25" as="geometry" />
        </mxCell>
        <mxCell id="yyhhArBecVeN2Ec1ix6R-1" value="&lt;span style=&quot;color: rgb(250, 250, 250); font-family: &amp;quot;Lucida Console&amp;quot;; font-size: 14px; font-weight: 700; text-wrap: nowrap;&quot;&gt;$STATEMACHINE : Enemy1Sm&lt;/span&gt;" style="rounded=1;whiteSpace=wrap;html=1;fillColor=#1ba1e2;fontColor=#ffffff;strokeColor=#006EAF;connectable=0;allowArrows=0;" parent="1" vertex="1">
          <mxGeometry x="2.5" y="-20" width="477.5" height="35" as="geometry" />
        </mxCell>
      </root>
    </mxGraphModel>
  </diagram>
</mxfile>
